<svg xmlns="http://www.w3.org/2000/svg" width="676.475" height="866.192" viewBox="0 0 676.475 866.192"><defs><style>.a{opacity:0.1;}.b{fill:#fffff7;}</style></defs><g class="a" transform="matrix(0.875, -0.485, 0.485, 0.875, -1689.111, -2906.981)"><ellipse class="b" cx="61.07" cy="61.07" rx="61.07" ry="61.07" transform="translate(360.031 3814.975)"/><ellipse class="b" cx="26.173" cy="26.173" rx="26.173" ry="26.173" transform="translate(112.293 3420.662)"/><ellipse class="b" cx="17.449" cy="17.449" rx="17.449" ry="17.449" transform="translate(39.02 3413.678)"/><ellipse class="b" cx="34.897" cy="34.897" rx="34.897" ry="34.897" transform="translate(199.537 3473.001)"/><ellipse class="b" cx="43.622" cy="43.622" rx="43.622" ry="43.622" transform="translate(272.81 3553.266)"/><ellipse class="b" cx="26.173" cy="26.173" rx="26.173" ry="26.173" transform="translate(114.032 4277.341)"/><ellipse class="b" cx="17.449" cy="17.449" rx="17.449" ry="17.449" transform="translate(40.755 4301.767)"/><ellipse class="b" cx="34.897" cy="34.897" rx="34.897" ry="34.897" transform="translate(201.275 4207.546)"/><ellipse class="b" cx="43.622" cy="43.622" rx="43.622" ry="43.622" transform="translate(274.552 4109.839)"/><ellipse class="b" cx="52.346" cy="52.346" rx="52.346" ry="52.346" transform="translate(337.362 3977.235)"/></g></svg>