<svg xmlns="http://www.w3.org/2000/svg" width="45" height="45" viewBox="0 0 45 45"><defs><style>.a{fill:#fff;}</style></defs><path class="a" d="M22.5,0A22.5,22.5,0,1,0,45,22.5,22.5,22.5,0,0,0,22.5,0ZM15.962,34.014h-5.48V17.528h5.48Zm-2.74-18.737h-.036a2.856,2.856,0,1,1,.072-5.7,2.857,2.857,0,1,1-.036,5.7Zm22.5,18.737H30.242v-8.82c0-2.216-.793-3.728-2.776-3.728a3,3,0,0,0-2.811,2,3.753,3.753,0,0,0-.18,1.337v9.207H18.994s.072-14.939,0-16.486h5.479v2.334a5.44,5.44,0,0,1,4.938-2.721c3.605,0,6.309,2.356,6.309,7.42Zm0,0"/></svg>