<?xml version="1.0" encoding="utf-8"?>
<!-- Generator: Adobe Illustrator 24.0.0, SVG Export Plug-In . SVG Version: 6.00 Build 0)  -->
<svg version="1.1" id="Capa_1" xmlns="http://www.w3.org/2000/svg" xmlns:xlink="http://www.w3.org/1999/xlink" x="0px" y="0px"
	 viewBox="0 0 414.5 100.4" style="enable-background:new 0 0 414.5 100.4;" xml:space="preserve">
<style type="text/css">
	.st0{fill:#FFFFF7;}
	.st1{fill:#088484;}
	.st2{opacity:0.15;fill:none;stroke:#178483;stroke-dasharray:3;enable-background:new    ;}
	.st3{opacity:0.3;fill:none;stroke:#178483;stroke-dasharray:3;enable-background:new    ;}
	.st4{opacity:0.15;fill:none;stroke:#EFF0F0;stroke-dasharray:3;enable-background:new    ;}
	.st5{opacity:0.3;fill:none;stroke:#EFF0F0;stroke-dasharray:3;enable-background:new    ;}
	.st6{opacity:0.5;fill:none;stroke:#EFF0F0;stroke-dasharray:3;enable-background:new    ;}
	.st7{opacity:0.5;fill:none;stroke:#178483;stroke-dasharray:3;enable-background:new    ;}
</style>
<rect x="-6.4" y="-3.9" class="st0" width="424.9" height="108"/>
<path class="st1" d="M-6.4-3.9v45.7c0,0,100,40.4,231.3,38.3s193.6-39.9,193.6-39.9V-3.9H-6.4z"/>
<g transform="translate(-0.267 -2230.058)">
	<g transform="translate(0.5 2230.5)">
		<path class="st2" d="M0,66.5c0,0,106.6,32.9,210.1,32.9S414,66.5,414,66.5"/>
		<path class="st3" d="M0,59.6c0,0,106.6,32.9,210.1,32.9S414,59.6,414,59.6"/>
		<path class="st4" d="M0,0c0,0,106.6,56.2,210.1,56.2S414,0,414,0"/>
		<path class="st5" d="M0,18.9c0,0,106.6,44.9,210.1,44.9S414,18.9,414,18.9"/>
		<path class="st6" d="M0,33.7c0,0,106.6,38.2,210.1,38.2S414,33.7,414,33.7"/>
		<path class="st7" d="M0,52.2c0,0,106.6,32.9,210.1,32.9S414,52.2,414,52.2"/>
	</g>
</g>
</svg>
