<?xml version="1.0" encoding="utf-8"?>
<!-- Generator: Adobe Illustrator 24.0.0, SVG Export Plug-In . SVG Version: 6.00 Build 0)  -->
<svg version="1.1" id="Capa_1" xmlns="http://www.w3.org/2000/svg" xmlns:xlink="http://www.w3.org/1999/xlink" x="0px" y="0px"
	 viewBox="0 0 1366.3 216.1" style="enable-background:new 0 0 1366.3 216.1;" xml:space="preserve">
<style type="text/css">
	.st0{fill:#177E7D;}
	.st1{opacity:0.15;fill:none;stroke:#178483;stroke-dasharray:3;enable-background:new    ;}
	.st2{opacity:0.3;fill:none;stroke:#178483;stroke-dasharray:3;enable-background:new    ;}
	.st3{opacity:0.15;fill:none;stroke:#EFF0F0;stroke-dasharray:3;enable-background:new    ;}
	.st4{opacity:0.3;fill:none;stroke:#EFF0F0;stroke-dasharray:3;enable-background:new    ;}
	.st5{opacity:0.5;fill:none;stroke:#EFF0F0;stroke-dasharray:3;enable-background:new    ;}
	.st6{opacity:0.5;fill:none;stroke:#178483;stroke-dasharray:3;enable-background:new    ;}
</style>
<path class="st0" d="M-6,86c0,0,347.6,83.5,689.3,83.5c350.7,0,692.7-87.8,692.7-87.8H-6V86z"/>
<g transform="translate(-0.337 -2230.027)">
	<path class="st1" d="M0.5,2374.5c0,0,351.9,71.1,693.4,71.1s672.6-71.1,672.6-71.1"/>
	<path class="st2" d="M0.5,2359.5c0,0,351.9,71.1,693.4,71.1s672.6-71.1,672.6-71.1"/>
	<path class="st3" d="M0.5,2230.5c0,0,351.9,121.6,693.4,121.6s672.6-121.6,672.6-121.6"/>
	<path class="st4" d="M0.5,2271.5c0,0,351.9,97.1,693.4,97.1s672.6-97.1,672.6-97.1"/>
	<path class="st5" d="M0.5,2303.5c0,0,351.9,82.6,693.4,82.6s672.6-82.6,672.6-82.6"/>
	<path class="st6" d="M0.5,2343.5c0,0,351.9,71.1,693.4,71.1s672.6-71.1,672.6-71.1"/>
</g>
</svg>
