<svg xmlns="http://www.w3.org/2000/svg" width="44.222" height="41.161" viewBox="0 0 44.222 41.161"><defs><style>.a{fill:#fff;}</style></defs><g transform="translate(-557.788 -357.074)"><path class="a" d="M585.783,357.074V370.96a1.467,1.467,0,0,1-2.274,1.221l-3.61-2.393-3.61,2.393a1.465,1.465,0,0,1-2.274-1.221V357.074H559.788a2,2,0,0,0-2,2v37.161a2,2,0,0,0,2,2H600.01a2,2,0,0,0,2-2V359.074a2,2,0,0,0-2-2Zm-11.911,24.712h12.054a1.5,1.5,0,0,1,0,3H573.872a1.5,1.5,0,0,1,0-3Zm16.287,9.082h-20.52a1.5,1.5,0,0,1,0-3h20.52a1.5,1.5,0,0,1,0,3Z"/></g></svg>