<svg xmlns="http://www.w3.org/2000/svg" width="40" height="40" viewBox="0 0 40 40"><defs><style>.a{opacity:0.8;}.b{fill:#fff;}.c{fill:#3a3a3a;}</style></defs><g class="a" transform="translate(0 0.001)"><circle class="b" cx="20" cy="20" r="20" transform="translate(0 -0.001)"/><g transform="translate(9.65 8.545)"><path class="c" d="M49.368,37.033v8.246H44.587V37.585c0-1.932-.69-3.251-2.421-3.251a2.615,2.615,0,0,0-2.452,1.748,3.272,3.272,0,0,0-.158,1.165v8.03H34.775s.064-13.029,0-14.378h4.781v2.038c-.01.016-.023.032-.032.047h.032v-.047a4.747,4.747,0,0,1,4.309-2.375c3.145,0,5.5,2.055,5.5,6.47ZM29.773,23.969a2.491,2.491,0,1,0-.063,4.969h.031a2.492,2.492,0,1,0,.032-4.969ZM27.352,45.278h4.779V30.9H27.352Z" transform="translate(-27.068 -23.969)"/></g></g></svg>