<?xml version="1.0" encoding="utf-8"?>
<!-- Generator: Adobe Illustrator 24.0.0, SVG Export Plug-In . SVG Version: 6.00 Build 0)  -->
<svg version="1.1" id="Capa_1" xmlns="http://www.w3.org/2000/svg" xmlns:xlink="http://www.w3.org/1999/xlink" x="0px" y="0px"
	 viewBox="0 0 264 70" style="enable-background:new 0 0 264 70;" xml:space="preserve">
<style type="text/css">
	.st0{fill:#3A3A3A;}
	.st1{fill:url(#SVGID_1_);}
	.st2{fill:url(#SVGID_2_);}
	.st3{fill:url(#SVGID_3_);}
	.st4{fill:url(#SVGID_4_);}
	.st5{fill:url(#SVGID_5_);}
	.st6{fill:url(#SVGID_6_);}
	.st7{fill:url(#SVGID_7_);}
	.st8{fill:url(#SVGID_8_);}
	.st9{fill:url(#SVGID_9_);}
	.st10{fill:url(#SVGID_10_);}
	.st11{fill:url(#SVGID_11_);}
	.st12{fill:url(#SVGID_12_);}
	.st13{fill:url(#SVGID_13_);}
	.st14{fill:url(#SVGID_14_);}
	.st15{fill:url(#SVGID_15_);}
	.st16{fill:url(#SVGID_16_);}
	.st17{fill:url(#SVGID_17_);}
	.st18{fill:url(#SVGID_18_);}
	.st19{fill:url(#SVGID_19_);}
	.st20{fill:url(#SVGID_20_);}
	.st21{fill:url(#SVGID_21_);}
	.st22{fill:url(#SVGID_22_);}
	.st23{fill:url(#SVGID_23_);}
	.st24{fill:url(#SVGID_24_);}
	.st25{fill:url(#SVGID_25_);}
	.st26{fill:url(#SVGID_26_);}
	.st27{fill:url(#SVGID_27_);}
	.st28{fill:url(#SVGID_28_);}
	.st29{fill:url(#SVGID_29_);}
	.st30{fill:url(#SVGID_30_);}
</style>
<path class="st0" d="M90.9,54c-1.3-1.4-1.9-3.2-1.8-5.1V15.7c0-0.6,0.1-1.1,0.5-1.6c0.3-0.4,0.8-0.6,1.3-0.6c0.5,0,1,0.2,1.4,0.6
	c0.3,0.5,0.5,1,0.5,1.6V49c0,0.9,0.3,1.8,0.8,2.6c0.6,0.6,1.4,1,2.3,1h18.9c1.3,0,2,0.6,2,1.7c0,0.5-0.2,0.9-0.5,1.2
	c-0.4,0.3-0.9,0.5-1.5,0.4H96C94.2,55.9,92.3,55.3,90.9,54z"/>
<path class="st0" d="M122.2,53.9c-3.9-3.6-4.2-9.6-0.6-13.5c0.2-0.3,0.5-0.5,0.8-0.7c2.2-1.7,5.2-2.6,9-2.6c2.1,0,4.2,0.3,6.2,1
	c1.6,0.5,3,1.4,4.1,2.7v-4.1c0.1-2-0.7-4-2.2-5.4c-1.5-1.2-3.6-1.8-6.5-1.8c-3.3-0.1-6.6,0.9-9.3,2.7c-0.4,0.3-0.9,0.4-1.4,0.5
	c-0.3,0-0.7-0.1-1-0.4c-0.7-0.6-0.8-1.7-0.2-2.3c0-0.1,0.1-0.1,0.2-0.2c1.5-1.2,3.3-2.1,5.2-2.6c2.1-0.7,4.2-1,6.4-1
	c3.9,0,7,0.9,9.1,2.8c2.1,1.9,3.2,4.5,3.2,7.9v17.5c0,1.4-0.6,2.1-1.7,2.1c-0.5,0-1-0.2-1.3-0.6c-0.3-0.4-0.5-1-0.5-1.5v-2.4
	c-1.2,1.5-2.7,2.6-4.5,3.4c-2,0.8-4.1,1.2-6.2,1.2C127.2,56.4,124.3,55.6,122.2,53.9z M138.7,51.3c1.8-1,2.9-2.9,2.9-4.9
	c0-1.9-1-3.7-2.7-4.6c-2.3-1.2-4.9-1.8-7.6-1.6c-2.3-0.1-4.5,0.5-6.4,1.7c-1.5,1.2-2.3,3-2.2,4.8c-0.1,1.9,0.7,3.7,2.2,4.8
	c1.5,1.1,3.6,1.6,6.4,1.6C133.8,53.3,136.5,52.6,138.7,51.3L138.7,51.3z"/>
<path class="st0" d="M153.3,55.9c-0.3-0.5-0.5-1-0.5-1.6V28.2c0-1.4,0.6-2.1,1.8-2.1c0.5,0,1,0.2,1.3,0.6c0.3,0.5,0.5,1,0.5,1.6v3.9
	c1.3-1.9,3.1-3.4,5.1-4.5c2-1,4.3-1.6,6.6-1.5c3.6,0,6.4,1,8.3,3.1c1.9,2,2.9,5,2.9,8.9v16.3c0,0.6-0.1,1.1-0.5,1.6
	c-0.3,0.4-0.8,0.6-1.3,0.6c-1.1,0-1.7-0.7-1.7-2.1V38c0-2.9-0.6-5.1-1.9-6.5s-3.3-2.1-6-2.1c-3.1-0.1-6.1,1-8.3,3.2
	c-2.1,2.2-3.3,5.3-3.1,8.4v13.4c0,0.6-0.1,1.1-0.5,1.6C155.2,56.6,154.1,56.6,153.3,55.9C153.3,55.9,153.3,55.9,153.3,55.9
	L153.3,55.9z"/>
<path class="st0" d="M211.9,54.3c-2.2-1.3-4-3.3-5.1-5.6c-2.3-4.7-2.3-10.2,0-14.9c1.1-2.3,2.9-4.3,5.1-5.6c5.2-2.8,11.5-2.8,16.7,0
	c2.2,1.3,4,3.3,5.1,5.6c2.3,4.7,2.3,10.2,0,14.9c-1.1,2.3-2.9,4.3-5.1,5.6C223.5,57.1,217.2,57.1,211.9,54.3z M228.8,50
	c2.1-2.1,3.2-5,3.2-8.7c0-3.7-1.1-6.6-3.2-8.7c-4.9-4.2-12.1-4.2-16.9,0c-2.1,2.1-3.2,5-3.2,8.7c0,3.7,1.1,6.6,3.2,8.7
	C216.7,54.1,223.9,54.1,228.8,50L228.8,50z"/>
<path class="st0" d="M246.2,54.8c-2.2-1-4-2.5-5.4-4.4c-0.2-0.3-0.3-0.7-0.3-1.1c0-0.3,0.1-0.6,0.3-0.9c0.2-0.3,0.5-0.5,0.8-0.6
	c0.2-0.1,0.4-0.1,0.6-0.1c0.3,0,0.5,0.1,0.7,0.3c0.3,0.3,0.6,0.6,0.8,0.9c2.4,2.8,6,4.3,9.7,4.2c1.8,0.1,3.5-0.3,5.1-1.1
	c1.2-0.6,2-1.9,2-3.3c0-0.9-0.2-1.8-0.8-2.5c-0.7-0.7-1.5-1.3-2.5-1.6c-1.1-0.5-3-1.2-5.6-2.1c-1.9-0.6-3.7-1.4-5.4-2.3
	c-1.2-0.6-2.3-1.5-3.1-2.6c-0.8-1.2-1.2-2.6-1.1-4c0-2.2,1-4.2,2.8-5.4c2.2-1.5,4.8-2.2,7.5-2.1c2.2,0,4.3,0.4,6.3,1.3
	c1.8,0.7,3.3,1.9,4.4,3.4c0.3,0.3,0.4,0.7,0.4,1.1c0,0.5-0.3,1-0.8,1.2c-0.3,0.2-0.7,0.3-1,0.3c-0.6,0-1.1-0.3-1.5-0.8
	c-0.9-1-2-1.9-3.3-2.4c-1.5-0.6-3.1-0.8-4.6-0.8c-1.7-0.1-3.4,0.3-4.9,1.1c-1.1,0.7-1.7,1.9-1.7,3.2c0,0.9,0.2,1.7,0.8,2.4
	c0.6,0.6,1.3,1.1,2.1,1.5c0.9,0.4,2.5,1,4.9,1.8c2.2,0.7,4.3,1.6,6.3,2.6c1.3,0.6,2.4,1.6,3.3,2.8c0.7,1.2,1.1,2.5,1,3.9
	c0.1,2.3-1.1,4.5-3,5.7c-2.3,1.5-4.9,2.2-7.6,2.1C250.9,56.4,248.4,55.9,246.2,54.8z"/>
<path class="st0" d="M189.5,54c-1.3-1.4-1.9-3.2-1.8-5.1V15.7c0-0.6,0.1-1.1,0.5-1.6c0.3-0.4,0.8-0.6,1.3-0.6c0.5,0,1,0.2,1.4,0.6
	c0.3,0.5,0.5,1,0.5,1.6v33.3c0,0.9,0.3,1.8,0.8,2.6c0.6,0.6,1.4,1,2.3,1h5.7c1.3,0,2,0.6,2,1.7c0,0.5-0.2,0.9-0.5,1.2
	c-0.4,0.3-0.9,0.5-1.5,0.4h-5.5C192.7,56,190.8,55.3,189.5,54z"/>
<path class="st0" d="M184.4,29.8h14.8c1.3,0,2-0.5,2-1.6c0-1-0.7-1.5-2-1.5h-14.8c-1.3,0-2,0.5-2,1.5
	C182.4,29.3,183.1,29.8,184.4,29.8z"/>
<linearGradient id="SVGID_1_" gradientUnits="userSpaceOnUse" x1="73.5646" y1="88.0128" x2="73.7266" y2="80.2498" gradientTransform="matrix(9.264 0 0 -9.264 -613.613 813.138)">
	<stop  offset="0" style="stop-color:#088484"/>
	<stop  offset="0.99" style="stop-color:#4AE1D2"/>
</linearGradient>
<circle class="st1" cx="68.7" cy="35.1" r="4.6"/>
<linearGradient id="SVGID_2_" gradientUnits="userSpaceOnUse" x1="61.8225" y1="83.0546" x2="62.2005" y2="64.9416" gradientTransform="matrix(3.97 0 0 -3.97 -198.293 327.95)">
	<stop  offset="0" style="stop-color:#088484"/>
	<stop  offset="0.99" style="stop-color:#4AE1D2"/>
</linearGradient>
<circle class="st2" cx="47.2" cy="2.5" r="2"/>
<linearGradient id="SVGID_3_" gradientUnits="userSpaceOnUse" x1="51.4863" y1="81.332" x2="52.0543" y2="54.162" gradientTransform="matrix(2.646 0 0 -2.646 -95.282 213.556)">
	<stop  offset="0" style="stop-color:#088484"/>
	<stop  offset="0.99" style="stop-color:#4AE1D2"/>
</linearGradient>
<circle class="st3" cx="41" cy="1.3" r="1.3"/>
<linearGradient id="SVGID_4_" gradientUnits="userSpaceOnUse" x1="66.9749" y1="84.5695" x2="67.2589" y2="70.9845" gradientTransform="matrix(5.294 0 0 -5.294 -300.244 445.784)">
	<stop  offset="0" style="stop-color:#088484"/>
	<stop  offset="0.99" style="stop-color:#4AE1D2"/>
</linearGradient>
<circle class="st4" cx="54.5" cy="7.1" r="2.6"/>
<linearGradient id="SVGID_5_" gradientUnits="userSpaceOnUse" x1="70.0555" y1="85.7939" x2="70.2825" y2="74.9259" gradientTransform="matrix(6.616 0 0 -6.616 -403.091 565.563)">
	<stop  offset="0" style="stop-color:#088484"/>
	<stop  offset="0.99" style="stop-color:#4AE1D2"/>
</linearGradient>
<circle class="st5" cx="60.7" cy="13.9" r="3.3"/>
<linearGradient id="SVGID_6_" gradientUnits="userSpaceOnUse" x1="72.1057" y1="86.9418" x2="72.2947" y2="77.8858" gradientTransform="matrix(7.94 0 0 -7.94 -506.896 688.158)">
	<stop  offset="0" style="stop-color:#088484"/>
	<stop  offset="0.99" style="stop-color:#4AE1D2"/>
</linearGradient>
<circle class="st6" cx="66.2" cy="23.3" r="4"/>
<linearGradient id="SVGID_7_" gradientUnits="userSpaceOnUse" x1="61.4811" y1="99.4136" x2="61.8591" y2="81.3006" gradientTransform="matrix(3.97 0 0 -3.97 -198.161 392.92)">
	<stop  offset="0" style="stop-color:#088484"/>
	<stop  offset="0.99" style="stop-color:#4AE1D2"/>
</linearGradient>
<circle class="st7" cx="47.4" cy="67.5" r="2"/>
<linearGradient id="SVGID_8_" gradientUnits="userSpaceOnUse" x1="50.9555" y1="106.77" x2="51.5225" y2="79.601" gradientTransform="matrix(2.646 0 0 -2.646 -95.15 280.909)">
	<stop  offset="0" style="stop-color:#088484"/>
	<stop  offset="0.99" style="stop-color:#4AE1D2"/>
</linearGradient>
<circle class="st8" cx="41.1" cy="68.7" r="1.3"/>
<linearGradient id="SVGID_9_" gradientUnits="userSpaceOnUse" x1="66.755" y1="95.0895" x2="67.039" y2="81.5055" gradientTransform="matrix(5.294 0 0 -5.294 -300.112 501.491)">
	<stop  offset="0" style="stop-color:#088484"/>
	<stop  offset="0.99" style="stop-color:#4AE1D2"/>
</linearGradient>
<circle class="st9" cx="54.6" cy="62.9" r="2.6"/>
<linearGradient id="SVGID_10_" gradientUnits="userSpaceOnUse" x1="69.9222" y1="92.1719" x2="70.1492" y2="81.3039" gradientTransform="matrix(6.616 0 0 -6.616 -402.959 607.773)">
	<stop  offset="0" style="stop-color:#088484"/>
	<stop  offset="0.99" style="stop-color:#4AE1D2"/>
</linearGradient>
<circle class="st10" cx="60.9" cy="56.1" r="3.3"/>
<linearGradient id="SVGID_11_" gradientUnits="userSpaceOnUse" x1="72.0434" y1="89.8908" x2="72.2334" y2="80.8348" gradientTransform="matrix(7.94 0 0 -7.94 -506.764 711.58)">
	<stop  offset="0" style="stop-color:#088484"/>
	<stop  offset="0.99" style="stop-color:#4AE1D2"/>
</linearGradient>
<circle class="st11" cx="66.3" cy="46.7" r="4"/>
<linearGradient id="SVGID_12_" gradientUnits="userSpaceOnUse" x1="76.9373" y1="95.5521" x2="82.7223" y2="98.9631" gradientTransform="matrix(0.344 -6.8814 -6.8814 -0.344 666.0632 593.8112)">
	<stop  offset="0" style="stop-color:#088484"/>
	<stop  offset="0.99" style="stop-color:#4AE1D2"/>
</linearGradient>
<circle class="st12" cx="24.1" cy="10.7" r="3.4"/>
<linearGradient id="SVGID_13_" gradientUnits="userSpaceOnUse" x1="37.8517" y1="72.1562" x2="52.8907" y2="81.0232" gradientTransform="matrix(2.646 0 0 -2.646 -87.344 228.686)">
	<stop  offset="0" style="stop-color:#088484"/>
	<stop  offset="0.99" style="stop-color:#4AE1D2"/>
</linearGradient>
<circle class="st13" cx="49" cy="16.5" r="1.3"/>
<linearGradient id="SVGID_14_" gradientUnits="userSpaceOnUse" x1="45.4902" y1="74.4999" x2="58.0282" y2="81.8929" gradientTransform="matrix(3.174 0 0 -3.174 -134.245 269.702)">
	<stop  offset="0" style="stop-color:#088484"/>
	<stop  offset="0.99" style="stop-color:#4AE1D2"/>
</linearGradient>
<circle class="st14" cx="45.6" cy="12.3" r="1.6"/>
<linearGradient id="SVGID_15_" gradientUnits="userSpaceOnUse" x1="71.2677" y1="99.3153" x2="80.1167" y2="104.5323" gradientTransform="matrix(0.2354 -4.4918 -4.4918 -0.2354 486.4815 386.6275)">
	<stop  offset="0" style="stop-color:#088484"/>
	<stop  offset="0.99" style="stop-color:#4AE1D2"/>
</linearGradient>
<circle class="st15" cx="39.9" cy="9.9" r="2.2"/>
<linearGradient id="SVGID_16_" gradientUnits="userSpaceOnUse" x1="74.2183" y1="97.1567" x2="81.3803" y2="101.3797" gradientTransform="matrix(0.2909 -5.5504 -5.5504 -0.2909 565.3565 477.0154)">
	<stop  offset="0" style="stop-color:#088484"/>
	<stop  offset="0.99" style="stop-color:#4AE1D2"/>
</linearGradient>
<circle class="st16" cx="32.8" cy="8.2" r="2.8"/>
<linearGradient id="SVGID_17_" gradientUnits="userSpaceOnUse" x1="50.1648" y1="79.416" x2="65.2038" y2="88.283" gradientTransform="matrix(2.646 0 0 -2.646 -120.467 246.993)">
	<stop  offset="0" style="stop-color:#088484"/>
	<stop  offset="0.99" style="stop-color:#4AE1D2"/>
</linearGradient>
<circle class="st17" cx="15.8" cy="34.8" r="1.3"/>
<linearGradient id="SVGID_18_" gradientUnits="userSpaceOnUse" x1="55.2537" y1="80.2568" x2="67.7917" y2="87.6508" gradientTransform="matrix(3.174 0 0 -3.174 -165.714 287.172)">
	<stop  offset="0" style="stop-color:#088484"/>
	<stop  offset="0.99" style="stop-color:#4AE1D2"/>
</linearGradient>
<circle class="st18" cx="14.1" cy="29.8" r="1.6"/>
<linearGradient id="SVGID_19_" gradientUnits="userSpaceOnUse" x1="76.7729" y1="102.5611" x2="85.6229" y2="107.7781" gradientTransform="matrix(0.2354 -4.4918 -4.4918 -0.2354 461.3355 400.5875)">
	<stop  offset="0" style="stop-color:#088484"/>
	<stop  offset="0.99" style="stop-color:#4AE1D2"/>
</linearGradient>
<circle class="st19" cx="14.7" cy="23.9" r="2.2"/>
<linearGradient id="SVGID_20_" gradientUnits="userSpaceOnUse" x1="76.9326" y1="98.7572" x2="84.0946" y2="102.9802" gradientTransform="matrix(0.2909 -5.5504 -5.5504 -0.2909 550.0445 485.5193)">
	<stop  offset="0" style="stop-color:#088484"/>
	<stop  offset="0.99" style="stop-color:#4AE1D2"/>
</linearGradient>
<circle class="st20" cx="17.5" cy="16.7" r="2.8"/>
<linearGradient id="SVGID_21_" gradientUnits="userSpaceOnUse" x1="75.8306" y1="81.7393" x2="70.2216" y2="85.7303" gradientTransform="matrix(8.4679 -3.694850e-02 -3.694850e-02 -8.4679 -598.6389 769.5609)">
	<stop  offset="0" style="stop-color:#088484"/>
	<stop  offset="0.99" style="stop-color:#4AE1D2"/>
</linearGradient>
<circle class="st21" cx="14.8" cy="56.5" r="4.2"/>
<linearGradient id="SVGID_22_" gradientUnits="userSpaceOnUse" x1="73.6009" y1="73.6887" x2="61.6359" y2="82.2017" gradientTransform="matrix(3.97 -1.732234e-02 -1.732234e-02 -3.97 -239.8932 353.5772)">
	<stop  offset="0" style="stop-color:#088484"/>
	<stop  offset="0.99" style="stop-color:#4AE1D2"/>
</linearGradient>
<circle class="st22" cx="4.1" cy="26.7" r="2"/>
<linearGradient id="SVGID_23_" gradientUnits="userSpaceOnUse" x1="69.3889" y1="67.4891" x2="51.4409" y2="80.2581" gradientTransform="matrix(2.646 0 0 -2.646 -129.74 234.32)">
	<stop  offset="0" style="stop-color:#088484"/>
	<stop  offset="0.99" style="stop-color:#4AE1D2"/>
</linearGradient>
<circle class="st23" cx="6.6" cy="22.1" r="1.3"/>
<linearGradient id="SVGID_24_" gradientUnits="userSpaceOnUse" x1="75.4294" y1="76.9261" x2="66.4554" y2="83.3101" gradientTransform="matrix(5.2939 -2.309936e-02 -2.309936e-02 -5.2939 -350.1173 473.8128)">
	<stop  offset="0" style="stop-color:#088484"/>
	<stop  offset="0.99" style="stop-color:#4AE1D2"/>
</linearGradient>
<circle class="st24" cx="2.7" cy="33.3" r="2.6"/>
<linearGradient id="SVGID_25_" gradientUnits="userSpaceOnUse" x1="75.413" y1="78.1706" x2="67.253" y2="83.9766" gradientTransform="matrix(5.8219 -2.540319e-02 -2.540319e-02 -5.8219 -392.9168 526.4603)">
	<stop  offset="0" style="stop-color:#088484"/>
	<stop  offset="0.99" style="stop-color:#4AE1D2"/>
</linearGradient>
<circle class="st25" cx="3.2" cy="40.6" r="2.9"/>
<linearGradient id="SVGID_26_" gradientUnits="userSpaceOnUse" x1="76.0439" y1="80.3281" x2="69.6319" y2="84.8901" gradientTransform="matrix(7.408 0 0 -7.408 -521.949 668.379)">
	<stop  offset="0" style="stop-color:#088484"/>
	<stop  offset="0.99" style="stop-color:#4AE1D2"/>
</linearGradient>
<circle class="st26" cx="7.2" cy="49" r="3.7"/>
<linearGradient id="SVGID_27_" gradientUnits="userSpaceOnUse" x1="63.0791" y1="81.0956" x2="51.1141" y2="89.6076" gradientTransform="matrix(3.97 0 0 -3.97 -199.194 381.418)">
	<stop  offset="0" style="stop-color:#088484"/>
	<stop  offset="0.99" style="stop-color:#4AE1D2"/>
</linearGradient>
<circle class="st27" cx="46.3" cy="56" r="2"/>
<linearGradient id="SVGID_28_" gradientUnits="userSpaceOnUse" x1="68.3119" y1="81.9297" x2="59.3379" y2="88.3147" gradientTransform="matrix(5.294 0 0 -5.294 -314.044 498.311)">
	<stop  offset="0" style="stop-color:#088484"/>
	<stop  offset="0.99" style="stop-color:#4AE1D2"/>
</linearGradient>
<circle class="st28" cx="40.7" cy="59.7" r="2.6"/>
<linearGradient id="SVGID_29_" gradientUnits="userSpaceOnUse" x1="70.2374" y1="81.7992" x2="62.0774" y2="87.6042" gradientTransform="matrix(5.822 0 0 -5.822 -364.939 545.656)">
	<stop  offset="0" style="stop-color:#088484"/>
	<stop  offset="0.99" style="stop-color:#4AE1D2"/>
</linearGradient>
<circle class="st29" cx="33.4" cy="61.9" r="2.9"/>
<linearGradient id="SVGID_30_" gradientUnits="userSpaceOnUse" x1="73.7358" y1="82.0125" x2="67.3248" y2="86.5745" gradientTransform="matrix(7.4079 -3.232339e-02 -3.232339e-02 -7.4079 -501.9994 682.9554)">
	<stop  offset="0" style="stop-color:#088484"/>
	<stop  offset="0.99" style="stop-color:#4AE1D2"/>
</linearGradient>
<circle class="st30" cx="24.4" cy="60.9" r="3.7"/>
</svg>
