<svg xmlns="http://www.w3.org/2000/svg" xmlns:xlink="http://www.w3.org/1999/xlink" width="264.019" height="70" viewBox="0 0 264.019 70"><defs><style>.a{fill:#fff;}.b{fill:url(#a);}.c{fill:url(#b);}.d{fill:url(#c);}.e{fill:url(#d);}.f{fill:url(#e);}.g{fill:url(#f);}.h{fill:url(#g);}.i{fill:url(#h);}.j{fill:url(#i);}.k{fill:url(#j);}.l{fill:url(#k);}.m{fill:url(#l);}.n{fill:url(#m);}.o{fill:url(#n);}.p{fill:url(#o);}.q{fill:url(#p);}.r{fill:url(#q);}.s{fill:url(#r);}.t{fill:url(#s);}.u{fill:url(#t);}.v{fill:url(#u);}.w{fill:url(#v);}.x{fill:url(#w);}.y{fill:url(#x);}.z{fill:url(#y);}.aa{fill:url(#z);}.ab{fill:url(#aa);}.ac{fill:url(#ab);}.ad{fill:url(#ac);}.ae{fill:url(#ad);}</style><linearGradient id="a" x1="0.416" y1="-3.524" x2="0.578" y2="4.239" gradientUnits="objectBoundingBox"><stop offset="0" stop-color="#088484"/><stop offset="0.99" stop-color="#4ae1d2"/></linearGradient><linearGradient id="b" x1="0.477" y1="-0.581" x2="0.855" y2="17.532" xlink:href="#a"/><linearGradient id="c" x1="0.476" y1="-0.623" x2="1.044" y2="26.547" xlink:href="#a"/><linearGradient id="d" x1="0.464" y1="-1.214" x2="0.748" y2="12.371" xlink:href="#a"/><linearGradient id="e" x1="0.45" y1="-1.91" x2="0.677" y2="8.958" xlink:href="#a"/><linearGradient id="f" x1="0.433" y1="-2.705" x2="0.622" y2="6.351" xlink:href="#a"/><linearGradient id="g" x1="0.136" y1="-16.94" x2="0.514" y2="1.173" xlink:href="#a"/><linearGradient id="h" x1="-0.055" y1="-26.061" x2="0.512" y2="1.108" xlink:href="#a"/><linearGradient id="i" x1="0.244" y1="-11.734" x2="0.528" y2="1.85" xlink:href="#a"/><linearGradient id="j" x1="0.316" y1="-8.288" x2="0.543" y2="2.58" xlink:href="#a"/><linearGradient id="k" x1="0.371" y1="-5.654" x2="0.561" y2="3.402" xlink:href="#a"/><linearGradient id="l" x1="-2.439" y1="2.233" x2="3.346" y2="-1.178" xlink:href="#a"/><linearGradient id="m" x1="-13.158" y1="8.553" x2="1.881" y2="-0.314" xlink:href="#a"/><linearGradient id="n" x1="-10.675" y1="7.089" x2="1.863" y2="-0.304" xlink:href="#a"/><linearGradient id="o" x1="-6.67" y1="4.727" x2="2.179" y2="-0.49" xlink:href="#a"/><linearGradient id="p" x1="-4.494" y1="3.445" x2="2.668" y2="-0.778" xlink:href="#a"/><linearGradient id="q" x1="-0.845" y1="1.293" x2="14.194" y2="-7.574" xlink:href="#a"/><linearGradient id="r" x1="-0.911" y1="1.333" x2="11.627" y2="-6.061" xlink:href="#a"/><linearGradient id="s" x1="-1.165" y1="1.481" x2="7.685" y2="-3.736" xlink:href="#a"/><linearGradient id="t" x1="-1.78" y1="1.844" x2="5.382" y2="-2.379" xlink:href="#a"/><linearGradient id="u" x1="3.521" y1="2.65" x2="-2.088" y2="-1.341" xlink:href="#a"/><linearGradient id="v" x1="12.271" y1="8.875" x2="0.306" y2="0.362" xlink:href="#a"/><linearGradient id="w" x1="18.379" y1="13.22" x2="0.431" y2="0.451" xlink:href="#a"/><linearGradient id="x" x1="8.93" y1="6.497" x2="-0.044" y2="0.113" xlink:href="#a"/><linearGradient id="y" x1="7.508" y1="5.486" x2="-0.652" y2="-0.32" xlink:href="#a"/><linearGradient id="z" x1="5.113" y1="3.782" x2="-1.299" y2="-0.78" xlink:href="#a"/><linearGradient id="aa" x1="1.734" y1="1.378" x2="-10.231" y2="-7.134" xlink:href="#a"/><linearGradient id="ab" x1="1.801" y1="1.426" x2="-7.173" y2="-4.959" xlink:href="#a"/><linearGradient id="ac" x1="2.322" y1="1.796" x2="-5.838" y2="-4.009" xlink:href="#a"/><linearGradient id="ad" x1="2.813" y1="2.146" x2="-3.598" y2="-2.416" xlink:href="#a"/></defs><path class="a" d="M492.889,134.849a6.914,6.914,0,0,1-1.809-5.058V96.582A2.463,2.463,0,0,1,491.531,95a1.571,1.571,0,0,1,1.3-.574,1.7,1.7,0,0,1,1.385.574,2.378,2.378,0,0,1,.482,1.578v33.334a3.709,3.709,0,0,0,.847,2.559,2.881,2.881,0,0,0,2.262.956h18.932q1.98,0,1.979,1.666a1.451,1.451,0,0,1-.509,1.191,2.271,2.271,0,0,1-1.47.417H497.976A6.829,6.829,0,0,1,492.889,134.849Z" transform="translate(-401.94 -80.864)"/><path class="a" d="M650.908,187.631a9.579,9.579,0,0,1,.113-14.281q3.252-2.62,8.961-2.62a18.065,18.065,0,0,1,6.164.983,8.791,8.791,0,0,1,4.069,2.708v-4.108a6.581,6.581,0,0,0-2.205-5.354q-2.2-1.843-6.5-1.845a16.162,16.162,0,0,0-9.328,2.737,2.751,2.751,0,0,1-1.357.476,1.694,1.694,0,0,1-.957-.356,1.661,1.661,0,0,1,0-2.5,15.988,15.988,0,0,1,5.164-2.648,20.777,20.777,0,0,1,6.362-.983q5.88,0,9.1,2.8t3.222,7.915v17.5q0,2.142-1.7,2.144a1.588,1.588,0,0,1-1.272-.574,2.257,2.257,0,0,1-.479-1.517v-2.432a11.283,11.283,0,0,1-4.468,3.362,15.73,15.73,0,0,1-6.219,1.161Q654.043,190.192,650.908,187.631Zm16.481-2.587a5.657,5.657,0,0,0,2.883-4.911,5.072,5.072,0,0,0-2.714-4.551,14.7,14.7,0,0,0-7.576-1.637,10.438,10.438,0,0,0-6.416,1.7,5.747,5.747,0,0,0-2.236,4.849,5.617,5.617,0,0,0,2.179,4.79q2.179,1.635,6.353,1.637A13.6,13.6,0,0,0,667.389,185.044Z" transform="translate(-528.665 -133.768)"/><path class="a" d="M824.423,189.616a2.464,2.464,0,0,1-.453-1.578V161.974q0-2.142,1.753-2.144a1.572,1.572,0,0,1,1.3.574,2.5,2.5,0,0,1,.451,1.578v3.867a14.306,14.306,0,0,1,5.089-4.463,14.089,14.089,0,0,1,6.559-1.547q5.427,0,8.282,3.06t2.855,8.9v16.255a2.354,2.354,0,0,1-.482,1.578,1.65,1.65,0,0,1-1.327.574q-1.7,0-1.7-2.144V171.8q0-4.4-1.912-6.546t-5.951-2.144a11.112,11.112,0,0,0-8.283,3.184,11.365,11.365,0,0,0-3.134,8.353v13.386a2.466,2.466,0,0,1-.451,1.578,1.776,1.776,0,0,1-2.6,0Z" transform="translate(-671.171 -133.758)"/><path class="a" d="M1104.343,188.119a13.288,13.288,0,0,1-5.145-5.594,17.278,17.278,0,0,1,0-14.939,13.3,13.3,0,0,1,5.145-5.594,17.692,17.692,0,0,1,16.734,0,13.332,13.332,0,0,1,5.146,5.594,17.311,17.311,0,0,1,0,14.939,13.324,13.324,0,0,1-5.146,5.594,17.623,17.623,0,0,1-16.734,0Zm16.828-4.345q3.195-3.125,3.2-8.718t-3.2-8.749a12.937,12.937,0,0,0-16.92.008q-3.2,3.155-3.2,8.749t3.2,8.718a12.99,12.99,0,0,0,16.91-.008Z" transform="translate(-892.394 -133.808)"/><path class="a" d="M1287.99,188.554a13.259,13.259,0,0,1-5.372-4.435,1.982,1.982,0,0,1-.339-1.071,1.466,1.466,0,0,1,.312-.893,1.742,1.742,0,0,1,.765-.595,3.017,3.017,0,0,1,.621-.119,1.162,1.162,0,0,1,.734.268,5.485,5.485,0,0,1,.849.922,12.117,12.117,0,0,0,9.724,4.167,10.4,10.4,0,0,0,5.089-1.1,3.559,3.559,0,0,0,1.979-3.3,3.6,3.6,0,0,0-.819-2.471,6.955,6.955,0,0,0-2.46-1.635q-1.638-.714-5.6-2.144a48.88,48.88,0,0,1-5.428-2.26,8.483,8.483,0,0,1-3.109-2.589,6.614,6.614,0,0,1-1.133-3.959,6.437,6.437,0,0,1,2.828-5.416,12.271,12.271,0,0,1,7.459-2.082,15.766,15.766,0,0,1,6.31,1.279,10.2,10.2,0,0,1,4.436,3.364,1.72,1.72,0,0,1,.4,1.13,1.337,1.337,0,0,1-.792,1.249,2.222,2.222,0,0,1-1.018.3,1.947,1.947,0,0,1-1.467-.774,9.954,9.954,0,0,0-3.287-2.44,11.747,11.747,0,0,0-4.636-.765,8.914,8.914,0,0,0-4.891,1.1,3.585,3.585,0,0,0-1.667,3.184,3.632,3.632,0,0,0,.764,2.44,5.545,5.545,0,0,0,2.092,1.457q1.328.574,4.89,1.755a46.715,46.715,0,0,1,6.276,2.649,9.125,9.125,0,0,1,3.307,2.767,6.779,6.779,0,0,1,1.046,3.869,6.61,6.61,0,0,1-2.967,5.714,12.964,12.964,0,0,1-7.6,2.082A16.816,16.816,0,0,1,1287.99,188.554Z" transform="translate(-1041.836 -133.767)"/><path class="a" d="M1008.109,134.849a6.913,6.913,0,0,1-1.809-5.058V96.582a2.473,2.473,0,0,1,.451-1.578,1.57,1.57,0,0,1,1.3-.574,1.707,1.707,0,0,1,1.386.574,2.367,2.367,0,0,1,.48,1.578v33.334a3.7,3.7,0,0,0,.85,2.559,2.868,2.868,0,0,0,2.26.956h5.716q1.978,0,1.977,1.666a1.448,1.448,0,0,1-.508,1.191,2.271,2.271,0,0,1-1.469.417H1013.2A6.836,6.836,0,0,1,1008.109,134.849Z" transform="translate(-818.635 -80.864)"/><path class="a" d="M980.839,166.105h14.756q1.98,0,1.979-1.606,0-1.549-1.979-1.549H980.839q-1.979,0-1.979,1.549Q978.86,166.105,980.839,166.105Z" transform="translate(-796.441 -136.283)"/><circle class="b" cx="4.632" cy="4.632" r="4.632" transform="translate(64.035 30.434)"/><circle class="c" cx="1.985" cy="1.985" r="1.985" transform="translate(45.247 0.53)"/><circle class="d" cx="1.323" cy="1.323" r="1.323" transform="translate(39.69)"/><circle class="e" cx="2.647" cy="2.647" r="2.647" transform="translate(51.864 4.5)"/><circle class="f" cx="3.308" cy="3.308" r="3.308" transform="translate(57.421 10.587)"/><circle class="g" cx="3.97" cy="3.97" r="3.97" transform="translate(62.184 19.318)"/><circle class="h" cx="1.985" cy="1.985" r="1.985" transform="translate(45.379 65.5)"/><circle class="i" cx="1.323" cy="1.323" r="1.323" transform="translate(39.822 67.353)"/><circle class="j" cx="2.647" cy="2.647" r="2.647" transform="translate(51.996 60.207)"/><circle class="k" cx="3.308" cy="3.308" r="3.308" transform="translate(57.553 52.797)"/><circle class="l" cx="3.97" cy="3.97" r="3.97" transform="translate(62.316 42.74)"/><circle class="m" cx="3.445" cy="3.445" r="3.445" transform="translate(20.472 13.95) rotate(-87.138)"/><circle class="n" cx="1.323" cy="1.323" r="1.323" transform="translate(47.628 15.13)"/><circle class="o" cx="1.587" cy="1.587" r="1.587" transform="translate(44.023 10.738)"/><circle class="p" cx="2.249" cy="2.249" r="2.249" transform="translate(37.487 12.052) rotate(-87)"/><circle class="q" cx="2.779" cy="2.779" r="2.779" transform="translate(29.876 10.868) rotate(-87)"/><circle class="r" cx="1.323" cy="1.323" r="1.323" transform="translate(14.505 33.437)"/><circle class="s" cx="1.587" cy="1.587" r="1.587" transform="translate(12.554 28.208)"/><circle class="t" cx="2.249" cy="2.249" r="2.249" transform="translate(12.341 26.012) rotate(-87)"/><circle class="u" cx="2.779" cy="2.779" r="2.779" transform="translate(14.564 19.372) rotate(-87)"/><circle class="v" cx="4.234" cy="4.234" r="4.234" transform="translate(10.553 52.29) rotate(-0.25)"/><circle class="w" cx="1.985" cy="1.985" r="1.985" transform="translate(2.154 24.74) rotate(-0.25)"/><circle class="x" cx="1.323" cy="1.323" r="1.323" transform="translate(5.232 20.764)"/><circle class="y" cx="2.647" cy="2.647" r="2.647" transform="translate(0 30.639) rotate(-0.25)"/><circle class="z" cx="2.911" cy="2.911" r="2.911" transform="translate(0.298 37.69) rotate(-0.25)"/><circle class="aa" cx="3.704" cy="3.704" r="3.704" transform="translate(3.507 45.291)"/><circle class="ab" cx="1.985" cy="1.985" r="1.985" transform="translate(44.346 53.998)"/><circle class="ac" cx="2.647" cy="2.647" r="2.647" transform="translate(38.064 57.027)"/><circle class="ad" cx="2.911" cy="2.911" r="2.911" transform="translate(30.465 58.964)"/><circle class="ae" cx="3.704" cy="3.704" r="3.704" transform="translate(20.671 57.223) rotate(-0.25)"/></svg>