<svg xmlns="http://www.w3.org/2000/svg" width="168" height="44.542" viewBox="0 0 168 44.542"><defs><style>.a{fill:#fff;}</style></defs><g transform="translate(-24.941 -23.5)"><path class="a" d="M492.231,120.149a4.4,4.4,0,0,1-1.151-3.219V95.8a1.567,1.567,0,0,1,.287-1,1,1,0,0,1,.827-.365,1.084,1.084,0,0,1,.881.365,1.513,1.513,0,0,1,.307,1v21.211a2.36,2.36,0,0,0,.539,1.628,1.833,1.833,0,0,0,1.44.608h12.047q1.259,0,1.259,1.06a.925.925,0,0,1-.324.758,1.446,1.446,0,0,1-.936.265h-11.94A4.345,4.345,0,0,1,492.231,120.149Z" transform="translate(-409.418 -62.297)"/><path class="a" d="M649.767,177.524a6.1,6.1,0,0,1,.072-9.087,8.846,8.846,0,0,1,5.7-1.667,11.494,11.494,0,0,1,3.922.625,5.6,5.6,0,0,1,2.589,1.723V166.5a4.19,4.19,0,0,0-1.4-3.407,6.317,6.317,0,0,0-4.137-1.174,10.286,10.286,0,0,0-5.936,1.741,1.749,1.749,0,0,1-.864.3,1.078,1.078,0,0,1-.608-.226,1.057,1.057,0,0,1,0-1.59,10.173,10.173,0,0,1,3.285-1.685,13.224,13.224,0,0,1,4.048-.625,8.562,8.562,0,0,1,5.792,1.78,6.312,6.312,0,0,1,2.05,5.037v11.133q0,1.363-1.079,1.364a1.009,1.009,0,0,1-.809-.365,1.436,1.436,0,0,1-.305-.965v-1.548a7.179,7.179,0,0,1-2.843,2.139,10.011,10.011,0,0,1-3.957.739A8.489,8.489,0,0,1,649.767,177.524Zm10.487-1.646a3.6,3.6,0,0,0,1.835-3.125,3.228,3.228,0,0,0-1.727-2.9,9.356,9.356,0,0,0-4.821-1.042,6.643,6.643,0,0,0-4.083,1.079,3.655,3.655,0,0,0-1.422,3.086,3.574,3.574,0,0,0,1.386,3.048,6.665,6.665,0,0,0,4.042,1.042A8.657,8.657,0,0,0,660.254,175.878Z" transform="translate(-547.041 -119.749)"/><path class="a" d="M824.258,178.783a1.57,1.57,0,0,1-.288-1V161.194q0-1.363,1.116-1.364a1,1,0,0,1,.827.365,1.594,1.594,0,0,1,.287,1v2.46a9.1,9.1,0,0,1,3.238-2.84,8.965,8.965,0,0,1,4.174-.984,6.858,6.858,0,0,1,5.27,1.947,8.005,8.005,0,0,1,1.817,5.661v10.343a1.5,1.5,0,0,1-.307,1,1.049,1.049,0,0,1-.844.365q-1.081,0-1.079-1.364V167.447a6.115,6.115,0,0,0-1.217-4.165,4.814,4.814,0,0,0-3.787-1.364,7.071,7.071,0,0,0-5.27,2.026,7.231,7.231,0,0,0-1.994,5.315v8.518a1.57,1.57,0,0,1-.287,1,1.13,1.13,0,0,1-1.655,0Z" transform="translate(-701.8 -119.739)"/><path class="a" d="M1101.854,177.853a8.46,8.46,0,0,1-3.273-3.559,11,11,0,0,1,0-9.506,8.464,8.464,0,0,1,3.273-3.559,11.258,11.258,0,0,1,10.649,0,8.485,8.485,0,0,1,3.275,3.559,11.018,11.018,0,0,1,0,9.506,8.478,8.478,0,0,1-3.275,3.559,11.214,11.214,0,0,1-10.649,0Zm10.708-2.765a7.563,7.563,0,0,0-5.388-13.116,7.314,7.314,0,0,0-5.378,2.007,8.611,8.611,0,0,0,0,11.115,8.266,8.266,0,0,0,10.76,0Z" transform="translate(-942.046 -119.793)"/><path class="a" d="M1285.914,178.111a8.434,8.434,0,0,1-3.418-2.822,1.262,1.262,0,0,1-.215-.681.931.931,0,0,1,.2-.568,1.11,1.11,0,0,1,.487-.378,1.918,1.918,0,0,1,.4-.075.74.74,0,0,1,.467.17,3.5,3.5,0,0,1,.54.587,7.709,7.709,0,0,0,6.188,2.652,6.616,6.616,0,0,0,3.238-.7,2.471,2.471,0,0,0,.737-3.674,4.424,4.424,0,0,0-1.565-1.04q-1.042-.454-3.562-1.364a31.089,31.089,0,0,1-3.453-1.438,5.4,5.4,0,0,1-1.979-1.648,4.211,4.211,0,0,1-.72-2.519,4.1,4.1,0,0,1,1.8-3.446,7.805,7.805,0,0,1,4.746-1.325,10.029,10.029,0,0,1,4.016.814,6.485,6.485,0,0,1,2.823,2.14,1.094,1.094,0,0,1,.252.719.852.852,0,0,1-.5.795,1.412,1.412,0,0,1-.647.19,1.24,1.24,0,0,1-.935-.493,6.327,6.327,0,0,0-2.092-1.553,7.471,7.471,0,0,0-2.95-.487,5.672,5.672,0,0,0-3.113.7,2.281,2.281,0,0,0-1.061,2.026,2.312,2.312,0,0,0,.487,1.553,3.529,3.529,0,0,0,1.331.927q.844.365,3.111,1.117a29.669,29.669,0,0,1,3.994,1.685,5.8,5.8,0,0,1,2.105,1.761,4.315,4.315,0,0,1,.666,2.462,4.2,4.2,0,0,1-1.889,3.636,8.248,8.248,0,0,1-4.839,1.325A10.7,10.7,0,0,1,1285.914,178.111Z" transform="translate(-1104.341 -119.748)"/><path class="a" d="M1007.451,120.149a4.4,4.4,0,0,1-1.151-3.219V95.8a1.575,1.575,0,0,1,.287-1,1,1,0,0,1,.828-.365,1.086,1.086,0,0,1,.882.365,1.506,1.506,0,0,1,.306,1v21.211a2.357,2.357,0,0,0,.54,1.628,1.825,1.825,0,0,0,1.438.608h3.637q1.258,0,1.258,1.06a.921.921,0,0,1-.324.758,1.445,1.445,0,0,1-.934.265h-3.529A4.35,4.35,0,0,1,1007.451,120.149Z" transform="translate(-861.943 -62.297)"/><path class="a" d="M980.119,164.958h9.389q1.259,0,1.259-1.022,0-.986-1.259-.986h-9.389q-1.259,0-1.259.986Q978.86,164.958,980.119,164.958Z" transform="translate(-837.842 -122.481)"/><circle class="a" cx="2.947" cy="2.947" r="2.947" transform="translate(65.688 42.866)"/><circle class="a" cx="1.263" cy="1.263" r="1.263" transform="translate(53.732 23.837)"/><circle class="a" cx="0.842" cy="0.842" r="0.842" transform="translate(50.196 23.5)"/><circle class="a" cx="1.684" cy="1.684" r="1.684" transform="translate(57.942 26.363)"/><circle class="a" cx="2.105" cy="2.105" r="2.105" transform="translate(61.479 30.236)"/><circle class="a" cx="2.526" cy="2.526" r="2.526" transform="translate(64.51 35.793)"/><circle class="a" cx="1.263" cy="1.263" r="1.263" transform="translate(53.816 65.179)"/><circle class="a" cx="0.842" cy="0.842" r="0.842" transform="translate(50.28 66.358)"/><circle class="a" cx="1.684" cy="1.684" r="1.684" transform="translate(58.026 61.811)"/><circle class="a" cx="2.105" cy="2.105" r="2.105" transform="translate(61.563 57.096)"/><circle class="a" cx="2.526" cy="2.526" r="2.526" transform="translate(64.594 50.696)"/><circle class="a" cx="2.192" cy="2.192" r="2.192" transform="translate(37.968 32.377) rotate(-87.138)"/><circle class="a" cx="0.842" cy="0.842" r="0.842" transform="translate(55.247 33.128)"/><circle class="a" cx="1.01" cy="1.01" r="1.01" transform="translate(52.953 30.333)"/><circle class="a" cx="1.431" cy="1.431" r="1.431" transform="translate(48.794 31.169) rotate(-87)"/><circle class="a" cx="1.768" cy="1.768" r="1.768" transform="translate(43.951 30.416) rotate(-87)"/><circle class="a" cx="0.842" cy="0.842" r="0.842" transform="translate(34.17 44.777)"/><circle class="a" cx="1.01" cy="1.01" r="1.01" transform="translate(32.929 41.45)"/><circle class="a" cx="1.431" cy="1.431" r="1.431" transform="translate(32.794 40.052) rotate(-87)"/><circle class="a" cx="1.768" cy="1.768" r="1.768" transform="translate(34.208 35.827) rotate(-87)"/><circle class="a" cx="2.694" cy="2.694" r="2.694" transform="translate(31.655 56.773) rotate(-0.25)"/><circle class="a" cx="1.263" cy="1.263" r="1.263" transform="translate(26.311 39.242) rotate(-0.25)"/><circle class="a" cx="0.842" cy="0.842" r="0.842" transform="translate(28.27 36.712)"/><circle class="a" cx="1.684" cy="1.684" r="1.684" transform="translate(24.941 42.996) rotate(-0.25)"/><circle class="a" cx="1.852" cy="1.852" r="1.852" transform="translate(25.13 47.483) rotate(-0.25)"/><circle class="a" cx="2.357" cy="2.357" r="2.357" transform="translate(27.172 52.32)"/><circle class="a" cx="1.263" cy="1.263" r="1.263" transform="translate(53.159 57.86)"/><circle class="a" cx="0.842" cy="0.842" r="0.842" transform="translate(55.803 55.815)"/><circle class="a" cx="1.684" cy="1.684" r="1.684" transform="translate(49.162 59.788)"/><circle class="a" cx="1.852" cy="1.852" r="1.852" transform="translate(44.326 61.02)"/><circle class="a" cx="2.357" cy="2.357" r="2.357" transform="translate(38.094 59.912) rotate(-0.25)"/></g></svg>