<svg xmlns="http://www.w3.org/2000/svg" xmlns:xlink="http://www.w3.org/1999/xlink" width="143.22" height="170.96" viewBox="0 0 143.22 170.96"><defs><style>.a{fill:#fff;opacity:0.501;}.b,.c{stroke:none;}.c{fill:#707070;}.d{filter:url(#a);}</style><filter id="a" x="0" y="0" width="143.22" height="170.96" filterUnits="userSpaceOnUse"><feOffset input="SourceAlpha"/><feGaussianBlur stdDeviation="10" result="b"/><feFlood flood-opacity="0.161"/><feComposite operator="in" in2="b"/><feComposite in="SourceGraphic"/></filter></defs><g class="d" transform="matrix(1, 0, 0, 1, 0, 0)"><g class="a" transform="translate(113.22 30) rotate(90)"><path class="b" d="M 99.74889373779297 82.72000122070312 L 11.21109676361084 82.72000122070312 C 9.148110389709473 82.72000122070312 7.335323333740234 81.63409423828125 6.361896514892578 79.81521606445312 C 5.38845682144165 77.996337890625 5.490483283996582 75.88565826416016 6.634829998016357 74.16915130615234 L 50.90372467041016 7.765801906585693 C 51.92610931396484 6.232228755950928 53.63687133789062 5.316655158996582 55.48000335693359 5.316655158996582 C 57.32313537597656 5.316655158996582 59.03389739990234 6.232228755950928 60.05627059936523 7.765801906585693 L 104.3251800537109 74.16915130615234 C 105.4695205688477 75.88565826416016 105.5715484619141 77.996337890625 104.5981216430664 79.81521606445312 C 103.6246795654297 81.63409423828125 101.811897277832 82.72000122070312 99.74889373779297 82.72000122070312 Z"/><path class="c" d="M 55.48000335693359 5.816658020019531 C 53.77940368652344 5.816658020019531 52.2630615234375 6.628189086914062 51.31975936889648 8.043144226074219 L 7.050849914550781 74.44650268554688 C 6.010528564453125 76.0069580078125 5.91778564453125 77.92575836181641 6.802719116210938 79.57926940917969 C 7.687660217285156 81.23281097412109 9.335647583007812 82.22000122070312 11.21109008789062 82.22000122070312 L 99.7489013671875 82.22000122070312 C 101.6243438720703 82.22000122070312 103.272346496582 81.23281097412109 104.1572875976562 79.57928466796875 C 105.0422210693359 77.92575836181641 104.949462890625 76.0069580078125 103.9091491699219 74.44650268554688 L 59.6402587890625 8.043144226074219 C 58.69694519042969 6.628189086914062 57.18058776855469 5.816658020019531 55.48000335693359 5.816658020019531 M 55.48000335693359 4.816650390625 C 57.38241958618164 4.816650390625 59.28483963012695 5.707252502441406 60.4723014831543 7.488441467285156 L 104.7412033081055 73.89179992675781 C 107.3994293212891 77.87912750244141 104.5410766601562 83.22000122070312 99.7489013671875 83.22000122070312 L 11.21109008789062 83.22000122070312 C 6.418930053710938 83.21998596191406 3.560577392578125 77.87912750244141 6.218788146972656 73.89179992675781 L 50.48770523071289 7.488441467285156 C 51.67516708374023 5.707252502441406 53.57758712768555 4.816650390625 55.48000335693359 4.816650390625 Z"/></g></g></svg>