<svg xmlns="http://www.w3.org/2000/svg" xmlns:xlink="http://www.w3.org/1999/xlink" width="110" height="75.444" viewBox="0 0 110 75.444"><defs><style>.a{fill:url(#a);}.b{filter:url(#b);}</style><linearGradient id="a" x1="0.5" x2="0.5" y2="1" gradientUnits="objectBoundingBox"><stop offset="0" stop-color="#fd7322"/><stop offset="1" stop-color="#febe2c"/></linearGradient><filter id="b" x="0" y="0" width="110" height="75.444" filterUnits="userSpaceOnUse"><feOffset dy="6" input="SourceAlpha"/><feGaussianBlur stdDeviation="7.5" result="c"/><feFlood flood-opacity="0.302"/><feComposite operator="in" in2="c"/><feComposite in="SourceGraphic"/></filter></defs><g transform="translate(-215.5 -1623.472)"><g class="b" transform="matrix(1, 0, 0, 1, 215.5, 1623.47)"><path class="a" d="M5.911,33.092H2.934V2.648H29.108c11.481,0,13.293,11.9,13.293,11.9l6.442-11.9h6.751L67.934,25.73l-3.866,7.36H47.8V29.419H66L52.211,2.648S43.125,20.889,41.175,24.443,35.56,33.09,29.285,33.09h-9.72V14.966h3.08V29.418h7.084c3.133,0,9.855-3.08,9.855-11.786S32.4,6.2,30.036,6.2H5.911V33.089Zm1.027,0V20.18h11.5v3.554H10.017v9.358H6.938Zm11.5-14.451V14.968H10.017V11.073H29.388c2.9,0,5.987,2.71,5.987,6.678s-3.116,6.693-5.338,6.693h-3.02V14.968H23.835V28h6.2c3.928,0,8.469-3.934,8.469-10.128,0-6.135-4.13-10.365-9.069-10.365H6.938V18.64h11.5ZM38.094,33.092,52.211,6.2,63.811,28H47.8V24.445H58.166L52.211,13.251l-9.8,19.842H38.1Z" transform="translate(19.57 13.85)"/></g></g></svg>