<?xml version="1.0" encoding="utf-8"?>
<!-- Generator: Adobe Illustrator 24.0.0, SVG Export Plug-In . SVG Version: 6.00 Build 0)  -->
<svg version="1.1" id="Capa_1" xmlns="http://www.w3.org/2000/svg" xmlns:xlink="http://www.w3.org/1999/xlink" x="0px" y="0px"
	 viewBox="0 0 95 93" style="enable-background:new 0 0 95 93;" xml:space="preserve">
<style type="text/css">
	.st0{fill:url(#SVGID_1_);}
	.st1{fill:url(#SVGID_2_);}
	.st2{fill:url(#SVGID_3_);}
	.st3{fill:url(#SVGID_4_);}
	.st4{fill:url(#SVGID_5_);}
</style>
<g transform="translate(-413.17 -343.651)">
	
		<linearGradient id="SVGID_1_" gradientUnits="userSpaceOnUse" x1="411.8753" y1="439.7293" x2="411.8753" y2="438.7293" gradientTransform="matrix(9.766 0 0 -9.766 -3552.4993 4689.5054)">
		<stop  offset="0" style="stop-color:#FD7322"/>
		<stop  offset="1" style="stop-color:#FEBE2C"/>
	</linearGradient>
	<circle class="st0" cx="469.9" cy="400" r="4.9"/>
	
		<linearGradient id="SVGID_2_" gradientUnits="userSpaceOnUse" x1="411.8404" y1="439.6601" x2="411.8404" y2="438.6601" gradientTransform="matrix(11.7679 0 0 -9.0836 -4376.5918 4398.7705)">
		<stop  offset="0" style="stop-color:#FD7322"/>
		<stop  offset="1" style="stop-color:#FEBE2C"/>
	</linearGradient>
	<path class="st1" d="M464,405.2v7.5c0,0.8,0.7,1.5,1.5,1.5c0.3,0,0.6-0.1,0.8-0.2l3.6-2.4l3.6,2.4c0.7,0.4,1.6,0.3,2-0.4
		c0.2-0.2,0.2-0.5,0.2-0.8v-7.6c-2.8,3.3-7.7,3.7-11,0.9C464.5,405.7,464.3,405.4,464,405.2z"/>
	<g transform="matrix(1, 0, 0, 1, 413.17, 343.65)">
		
			<linearGradient id="SVGID_3_" gradientUnits="userSpaceOnUse" x1="-1.2947" y1="96.0793" x2="-1.2947" y2="95.0793" gradientTransform="matrix(9.766 0 0 -9.766 69.352 989.7718)">
			<stop  offset="0" style="stop-color:#FD7322"/>
			<stop  offset="1" style="stop-color:#FEBE2C"/>
		</linearGradient>
		<circle class="st2" cx="56.7" cy="56.3" r="4.9"/>
	</g>
	<g transform="matrix(1, 0, 0, 1, 413.17, 343.65)">
		
			<linearGradient id="SVGID_4_" gradientUnits="userSpaceOnUse" x1="-1.3296" y1="96.0101" x2="-1.3296" y2="95.0101" gradientTransform="matrix(11.7679 0 0 -9.0836 72.3999 933.5352)">
			<stop  offset="0" style="stop-color:#FD7322"/>
			<stop  offset="1" style="stop-color:#FEBE2C"/>
		</linearGradient>
		<path class="st3" d="M50.9,61.5V69c0,0.8,0.7,1.5,1.5,1.5c0.3,0,0.6-0.1,0.8-0.2l3.6-2.4l3.6,2.4c0.7,0.4,1.6,0.3,2-0.4
			c0.2-0.2,0.2-0.5,0.2-0.8v-7.6c-2.8,3.3-7.7,3.7-11,0.9C51.4,62.1,51.1,61.8,50.9,61.5z"/>
	</g>
	<g transform="matrix(1, 0, 0, 1, 413.17, 343.65)">
		
			<linearGradient id="SVGID_5_" gradientUnits="userSpaceOnUse" x1="-1.4599" y1="96.7647" x2="-1.4599" y2="95.7647" gradientTransform="matrix(50 0 0 -38.084 120.495 3707.6858)">
			<stop  offset="0" style="stop-color:#FD7322"/>
			<stop  offset="1" style="stop-color:#FEBE2C"/>
		</linearGradient>
		<path class="st4" d="M71,22.5H24c-0.8,0-1.5,0.7-1.5,1.5v35.2c0,0.8,0.7,1.5,1.5,1.5c0,0,0,0,0,0h26.2c-2.3-3.6-1.3-8.5,2.3-10.8
			s8.5-1.3,10.8,2.3c1.7,2.6,1.7,5.9,0,8.5H71c0.8,0,1.5-0.7,1.5-1.5c0,0,0,0,0,0V24C72.5,23.2,71.8,22.5,71,22.5z M32.9,28.5h11.7
			c0.8,0,1.5,0.7,1.5,1.5c0,0.8-0.7,1.5-1.5,1.5H32.9c-0.8,0-1.5-0.7-1.5-1.5C31.4,29.1,32.1,28.5,32.9,28.5L32.9,28.5z M44.6,52.9
			H32.9c-0.8,0-1.5-0.7-1.5-1.5c0-0.8,0.7-1.5,1.5-1.5h11.7c0.8,0,1.5,0.7,1.5,1.5C46,52.3,45.4,52.9,44.6,52.9
			C44.6,52.9,44.6,52.9,44.6,52.9L44.6,52.9z M62.1,45.7H32.8c-0.8,0-1.5-0.6-1.5-1.4c0-0.8,0.6-1.5,1.4-1.5c0,0,0.1,0,0.1,0h29.3
			c0.8,0,1.4,0.7,1.4,1.5C63.6,45.1,62.9,45.7,62.1,45.7z M62.1,38.6H32.8c-0.8,0-1.5-0.7-1.5-1.5c0-0.8,0.7-1.5,1.5-1.5
			c0,0,0,0,0,0h29.3c0.8,0,1.5,0.7,1.5,1.5C63.6,37.9,63,38.6,62.1,38.6z"/>
	</g>
</g>
</svg>
