<?xml version="1.0" encoding="utf-8"?>
<!-- Generator: Adobe Illustrator 24.0.0, SVG Export Plug-In . SVG Version: 6.00 Build 0)  -->
<svg version="1.1" id="Capa_1" xmlns="http://www.w3.org/2000/svg" xmlns:xlink="http://www.w3.org/1999/xlink" x="0px" y="0px"
	 viewBox="0 0 95 93" style="enable-background:new 0 0 95 93;" xml:space="preserve">
<style type="text/css">
	.st0{fill:url(#SVGID_1_);}
	.st1{fill:url(#SVGID_2_);}
	.st2{fill:url(#SVGID_3_);}
</style>
<g transform="translate(-1224.266 -51.476)">
	<g transform="matrix(1, 0, 0, 1, 1224.27, 51.48)">
		
			<linearGradient id="SVGID_1_" gradientUnits="userSpaceOnUse" x1="-1.7318" y1="95.947" x2="-1.7318" y2="94.947" gradientTransform="matrix(58.382 0 0 -18.243 148.6015 1768.0851)">
			<stop  offset="0" style="stop-color:#FD7322"/>
			<stop  offset="1" style="stop-color:#FEBE2C"/>
		</linearGradient>
		<path class="st0" d="M47.7,17.7c1.3,0,2.7,0,4.1,0.1c2.3,0.1,4.5,0.3,6.8,0.6c3.4,0.4,6.7,1.1,10,2.1c1.9,0.6,3.7,1.4,5.3,2.4
			c0.8,0.5,1.5,1.1,2,1.8c1.1,1.3,1,3.1-0.1,4.3c-1,1.1-2.2,2-3.6,2.6c-2.5,1.2-5.2,2.1-8,2.6c-2.3,0.5-4.6,0.9-7,1.1
			c-1.9,0.2-3.9,0.4-5.9,0.4c-1.7,0.1-3.4,0.1-5,0.1c-2.4,0-4.7-0.1-7.1-0.4c-3.5-0.3-6.9-0.9-10.3-1.7c-2.5-0.6-4.9-1.5-7.1-2.7
			c-1-0.5-1.9-1.3-2.6-2.1c-1.2-1.3-1.2-3.3,0.1-4.6c1.1-1.2,2.5-2.1,4-2.7c3.2-1.4,6.5-2.3,9.9-2.9c2.1-0.4,4.3-0.6,6.4-0.8
			c1.1-0.1,2.2-0.2,3.3-0.2C44.4,17.8,46,17.7,47.7,17.7z"/>
	</g>
	<g transform="matrix(1, 0, 0, 1, 1224.27, 51.48)">
		
			<linearGradient id="SVGID_2_" gradientUnits="userSpaceOnUse" x1="-1.8086" y1="95.3307" x2="-1.8086" y2="94.3307" gradientTransform="matrix(18.0157 0 0 -5.6143 80.0734 604.8754)">
			<stop  offset="0" style="stop-color:#FD7322"/>
			<stop  offset="1" style="stop-color:#FEBE2C"/>
		</linearGradient>
		<path class="st1" d="M47.5,75.3c-2.3,0-4.5-0.3-6.7-0.9c-0.7-0.2-1.3-0.5-1.9-1c-0.5-0.3-0.6-1-0.3-1.5c0.1-0.1,0.2-0.2,0.3-0.3
			c0.7-0.5,1.6-0.9,2.5-1.1c1.7-0.4,3.4-0.7,5.1-0.7c2.1-0.1,4.1,0.1,6.1,0.5c1,0.2,1.9,0.5,2.7,1c0.4,0.2,0.8,0.6,1,1
			c0.1,0.4,0,0.8-0.3,1.1c-0.5,0.4-1.1,0.8-1.7,1c-1.2,0.4-2.5,0.7-3.7,0.8C49.6,75.2,48.6,75.3,47.5,75.3z"/>
	</g>
	<g transform="matrix(1, 0, 0, 1, 1224.27, 51.48)">
		
			<linearGradient id="SVGID_3_" gradientUnits="userSpaceOnUse" x1="-1.739" y1="96.0643" x2="-1.739" y2="95.0643" gradientTransform="matrix(48.2363 0 0 -31.889 131.3455 3099.3198)">
			<stop  offset="0" style="stop-color:#FD7322"/>
			<stop  offset="1" style="stop-color:#FEBE2C"/>
		</linearGradient>
		<path class="st2" d="M71.5,36c-0.1-0.1-0.2,0-0.2,0c-2.5,0.9-5.1,1.6-7.7,2.1c-2.6,0.5-5.2,0.8-7.8,1.1c-2,0.2-4,0.3-6,0.3
			c-1.9,0-3.7,0-5.6,0c-1.4-0.1-2.8-0.1-4.2-0.2c-2-0.2-3.9-0.4-5.9-0.7c-2.3-0.3-4.5-0.8-6.7-1.4c-1.4-0.4-2.8-0.8-4.2-1.3
			c0,0,0,0.1,0,0.1c2.1,3.4,4.1,6.8,6.2,10.3c0.3,0.7,0.8,1.3,1.3,1.9c0.6,0.6,1.2,1.2,1.7,1.9c2.2,2.8,3.9,5.9,4.9,9.3
			c0.6,2.1,1.1,4.3,1.2,6.5c0,0.6,0.1,1.3,0.1,1.9c5.7-1.9,11.8-1.9,17.5,0c0,0,0-0.1,0-0.1c0-1.1,0.1-2.3,0.3-3.4
			c0.4-2.8,1.1-5.5,2.2-8c1.1-2.6,2.6-5,4.5-7.1c0.8-0.8,1.5-1.7,2.1-2.7c0.2-0.4,0.5-0.8,0.7-1.2c1.8-3,3.7-6.1,5.5-9.1
			C71.5,36.2,71.6,36.1,71.5,36z M37,47.4c-1.2,0.1-2.3-0.9-2.4-2.2s0.9-2.3,2.2-2.4c0.1,0,0.1,0,0.2,0c1.2,0,2.3,0.9,2.3,2.2
			c0,1.2-0.9,2.3-2.2,2.3C37.1,47.4,37,47.4,37,47.4z M46.2,48.8c0-1.3,1.1-2.3,2.4-2.3c1.3,0,2.3,1,2.3,2.3c0,1.3-1,2.3-2.3,2.3
			c0,0,0,0-0.1,0C47.3,51.1,46.2,50.1,46.2,48.8L46.2,48.8z M49.3,60.9c-1.3,0.1-2.3-0.9-2.4-2.2c-0.1-1.3,0.9-2.3,2.2-2.4
			c0.1,0,0.1,0,0.2,0c1.3,0,2.3,1,2.3,2.2c0,0,0,0,0,0C51.6,59.8,50.6,60.9,49.3,60.9L49.3,60.9z M59,45.2c-1.3,0-2.3-1-2.3-2.3
			c0-1.3,1.1-2.3,2.4-2.2c1.2,0,2.3,0.9,2.3,2.2c0,0,0,0.1,0,0.1C61.3,44.2,60.3,45.2,59,45.2L59,45.2z"/>
	</g>
</g>
</svg>
