<?xml version="1.0" encoding="utf-8"?>
<!-- Generator: Adobe Illustrator 24.0.0, SVG Export Plug-In . SVG Version: 6.00 Build 0)  -->
<svg version="1.1" id="Capa_1" xmlns="http://www.w3.org/2000/svg" xmlns:xlink="http://www.w3.org/1999/xlink" x="0px" y="0px"
	 viewBox="0 0 95 93" style="enable-background:new 0 0 95 93;" xml:space="preserve">
<style type="text/css">
	.st0{fill:url(#SVGID_1_);}
	.st1{fill:url(#SVGID_2_);}
	.st2{fill:url(#SVGID_3_);}
	.st3{fill:url(#SVGID_4_);}
	.st4{fill:url(#SVGID_5_);}
	.st5{fill:url(#SVGID_6_);}
	.st6{fill:url(#SVGID_7_);}
	.st7{fill:url(#SVGID_8_);}
</style>
<g transform="translate(-1022.5 -1396.488)">
	<g transform="translate(1045 1412.988)">
		
			<linearGradient id="SVGID_1_" gradientUnits="userSpaceOnUse" x1="-25.0299" y1="80.4374" x2="-25.0299" y2="79.4374" gradientTransform="matrix(60 0 0 -31.04 1526.7933 2511.2566)">
			<stop  offset="0" style="stop-color:#FD7322"/>
			<stop  offset="1" style="stop-color:#FEBE2C"/>
		</linearGradient>
		<path class="st0" d="M-5,30c0,5.1,0,10.2,0,15.3c0,0.2,0,0.2,0.2,0.2c2.1,0,4.1,0,6.2,0c0.1,0,0.2,0,0.2-0.2c0-10.2,0-20.5,0-30.7
			c0-0.1,0-0.2-0.2-0.2c-2.1,0-4.1,0-6.2,0c-0.2,0-0.2,0-0.2,0.2C-5,19.8-5,24.9-5,30z M16.3,30c0,5.1,0,10.2,0,15.3
			c0,0.2,0,0.2,0.2,0.2c2.1,0,4.1,0,6.2,0c0.2,0,0.2,0,0.2-0.2c0-10.2,0-20.4,0-30.6c0-0.2,0-0.2-0.2-0.2c-2.1,0-4.1,0-6.2,0
			c-0.2,0-0.2,0-0.2,0.2L16.3,30z M27,34.9v10.4c0,0.2,0,0.2,0.2,0.2c2,0,4.1,0,6.1,0c0.2,0,0.2,0,0.2-0.2c0-6.9,0-13.8,0-20.7
			c0-0.2-0.1-0.2-0.2-0.2c-2,0-4.1,0-6.1,0c-0.2,0-0.2,0-0.2,0.2C27,28,27,31.5,27,34.9L27,34.9z M37.8,34.9c0,3.5,0,6.9,0,10.4
			c0,0.2,0,0.2,0.2,0.2c2.1,0,4.1,0,6.2,0c0.1,0,0.2,0,0.2-0.2c0-6.9,0-13.8,0-20.8c0-0.2,0-0.2-0.2-0.2c-2.1,0-4.1,0-6.2,0
			c-0.2,0-0.2,0-0.2,0.2C37.8,28,37.8,31.5,37.8,34.9L37.8,34.9z M12.2,25.1V14.7c0-0.1,0-0.2-0.2-0.2c-2.1,0-4.1,0-6.2,0
			c-0.2,0-0.2,0-0.2,0.2c0,6.9,0,13.8,0,20.8c0,0.1,0,0.2,0.2,0.2c2.1,0,4.1,0,6.2,0c0.2,0,0.2,0,0.2-0.2
			C12.2,32,12.2,28.5,12.2,25.1z M46.4,20.7c2.8,0,5.6,0,8.4,0c0.1,0,0.2,0,0.2-0.2c0-1.9,0-3.9,0-5.8c0-0.2,0-0.2-0.2-0.2
			c-5.6,0-11.2,0-16.8,0c-0.2,0-0.2,0-0.2,0.2c0,1.9,0,3.9,0,5.8c0,0.2,0,0.2,0.2,0.2C40.8,20.7,43.6,20.7,46.4,20.7z M30.2,20.7
			h3.1c0.1,0,0.2,0,0.2-0.2c0-1.9,0-3.9,0-5.8c0-0.2,0-0.2-0.2-0.2c-2.1,0-4.1,0-6.2,0c-0.1,0-0.2,0-0.2,0.2c0,2,0,3.9,0,5.9
			c0,0.1,0,0.2,0.2,0.2L30.2,20.7z"/>
		<g transform="matrix(1, 0, 0, 1, -22.5, -16.5)">
			
				<linearGradient id="SVGID_2_" gradientUnits="userSpaceOnUse" x1="-2.8013" y1="96.9372" x2="-2.8013" y2="95.9372" gradientTransform="matrix(6.574 0 0 -31.03 39.2025 3038.9453)">
				<stop  offset="0" style="stop-color:#FD7322"/>
				<stop  offset="1" style="stop-color:#FEBE2C"/>
			</linearGradient>
			<path class="st1" d="M17.5,46.5c0-5.1,0-10.2,0-15.3c0-0.2,0-0.2,0.2-0.2c2.1,0,4.1,0,6.2,0c0.1,0,0.2,0,0.2,0.2
				c0,10.2,0,20.5,0,30.7c0,0.1,0,0.2-0.2,0.2c-2.1,0-4.1,0-6.2,0c-0.2,0-0.2,0-0.2-0.2C17.5,56.7,17.5,51.6,17.5,46.5z"/>
		</g>
		<g transform="matrix(1, 0, 0, 1, -22.5, -16.5)">
			
				<linearGradient id="SVGID_3_" gradientUnits="userSpaceOnUse" x1="-2.8018" y1="96.9373" x2="-2.8018" y2="95.9373" gradientTransform="matrix(6.562 0 0 -31.033 60.4686 3039.2397)">
				<stop  offset="0" style="stop-color:#FD7322"/>
				<stop  offset="1" style="stop-color:#FEBE2C"/>
			</linearGradient>
			<path class="st2" d="M38.8,46.5c0-5.1,0-10.2,0-15.3c0-0.2,0-0.2,0.2-0.2c2.1,0,4.1,0,6.2,0c0.2,0,0.2,0,0.2,0.2
				c0,10.2,0,20.4,0,30.6c0,0.2,0,0.2-0.2,0.2c-2.1,0-4.1,0-6.2,0c-0.2,0-0.2,0-0.2-0.2C38.8,56.7,38.8,51.6,38.8,46.5z"/>
		</g>
		<g transform="matrix(1, 0, 0, 1, -22.5, -16.5)">
			
				<linearGradient id="SVGID_4_" gradientUnits="userSpaceOnUse" x1="-2.8016" y1="96.6801" x2="-2.8016" y2="95.6801" gradientTransform="matrix(6.567 0 0 -21.117 71.1316 2082.4861)">
				<stop  offset="0" style="stop-color:#FD7322"/>
				<stop  offset="1" style="stop-color:#FEBE2C"/>
			</linearGradient>
			<path class="st3" d="M49.5,51.4c0-3.4,0-6.9,0-10.3c0-0.2,0-0.2,0.2-0.2c2,0,4.1,0,6.1,0c0.2,0,0.2,0,0.2,0.2
				c0,6.9,0,13.8,0,20.7c0,0.2,0,0.2-0.2,0.2c-2,0-4.1,0-6.1,0c-0.2,0-0.2,0-0.2-0.2L49.5,51.4z"/>
		</g>
		<g transform="matrix(1, 0, 0, 1, -22.5, -16.5)">
			
				<linearGradient id="SVGID_5_" gradientUnits="userSpaceOnUse" x1="-2.8015" y1="96.6804" x2="-2.8015" y2="95.6804" gradientTransform="matrix(6.568 0 0 -21.125 81.9644 2083.2656)">
				<stop  offset="0" style="stop-color:#FD7322"/>
				<stop  offset="1" style="stop-color:#FEBE2C"/>
			</linearGradient>
			<path class="st4" d="M60.3,51.4c0-3.4,0-6.9,0-10.3c0-0.2,0-0.2,0.2-0.2c2.1,0,4.1,0,6.2,0c0.1,0,0.2,0,0.2,0.2
				c0,6.9,0,13.8,0,20.8c0,0.2-0.1,0.2-0.2,0.2c-2.1,0-4.1,0-6.2,0c-0.2,0-0.2,0-0.2-0.2L60.3,51.4z"/>
		</g>
		<g transform="matrix(1, 0, 0, 1, -22.5, -16.5)">
			
				<linearGradient id="SVGID_6_" gradientUnits="userSpaceOnUse" x1="-2.8019" y1="96.6806" x2="-2.8019" y2="95.6806" gradientTransform="matrix(6.561 0 0 -21.131 49.8225 2073.9507)">
				<stop  offset="0" style="stop-color:#FD7322"/>
				<stop  offset="1" style="stop-color:#FEBE2C"/>
			</linearGradient>
			<path class="st5" d="M34.7,41.6c0,3.4,0,6.9,0,10.3c0,0.2-0.1,0.2-0.2,0.2c-2.1,0-4.1,0-6.2,0c-0.1,0-0.2,0-0.2-0.2
				c0-6.9,0-13.8,0-20.8c0-0.2,0-0.2,0.2-0.2c2.1,0,4.1,0,6.2,0c0.1,0,0.2,0,0.2,0.2L34.7,41.6z"/>
		</g>
		<g transform="matrix(1, 0, 0, 1, -22.5, -16.5)">
			
				<linearGradient id="SVGID_7_" gradientUnits="userSpaceOnUse" x1="-2.6129" y1="94.7398" x2="-2.6129" y2="93.7398" gradientTransform="matrix(17.212 0 0 -6.192 113.8591 617.6113)">
				<stop  offset="0" style="stop-color:#FD7322"/>
				<stop  offset="1" style="stop-color:#FEBE2C"/>
			</linearGradient>
			<path class="st6" d="M68.9,37.2h-8.4c-0.2,0-0.2,0-0.2-0.2c0-1.9,0-3.9,0-5.8c0-0.2,0-0.2,0.2-0.2c5.6,0,11.2,0,16.8,0
				c0.2,0,0.2,0,0.2,0.2c0,1.9,0,3.9,0,5.8c0,0.1,0,0.2-0.2,0.2L68.9,37.2z"/>
		</g>
		<g transform="matrix(1, 0, 0, 1, -22.5, -16.5)">
			
				<linearGradient id="SVGID_8_" gradientUnits="userSpaceOnUse" x1="-2.8018" y1="94.7367" x2="-2.8018" y2="93.7367" gradientTransform="matrix(6.563 0 0 -6.1849 71.1196 616.9271)">
				<stop  offset="0" style="stop-color:#FD7322"/>
				<stop  offset="1" style="stop-color:#FEBE2C"/>
			</linearGradient>
			<path class="st7" d="M52.7,37.2h-3.1c-0.1,0-0.2,0-0.2-0.2c0-2,0-3.9,0-5.9c0-0.1,0-0.2,0.2-0.2c2.1,0,4.1,0,6.2,0
				c0.2,0,0.2,0,0.2,0.2c0,1.9,0,3.9,0,5.8c0,0.1,0,0.2-0.2,0.2L52.7,37.2z"/>
		</g>
	</g>
</g>
</svg>
