<svg xmlns="http://www.w3.org/2000/svg" xmlns:xlink="http://www.w3.org/1999/xlink" width="95" height="93" viewBox="0 0 95 93"><defs><style>.a{fill:url(#a);}.b{filter:url(#j);}.c{filter:url(#g);}.d{filter:url(#d);}</style><linearGradient id="a" x1="0.5" x2="0.5" y2="1" gradientUnits="objectBoundingBox"><stop offset="0" stop-color="#fd7322"/><stop offset="1" stop-color="#febe2c"/></linearGradient><filter id="d" x="29.316" y="28.957" width="54.765" height="54.765" filterUnits="userSpaceOnUse"><feOffset dy="6" input="SourceAlpha"/><feGaussianBlur stdDeviation="7.5" result="e"/><feFlood flood-opacity="0.302"/><feComposite operator="in" in2="e"/><feComposite in="SourceGraphic"/></filter><filter id="g" x="28.364" y="38.914" width="56.768" height="54.086" filterUnits="userSpaceOnUse"><feOffset dy="6" input="SourceAlpha"/><feGaussianBlur stdDeviation="7.5" result="h"/><feFlood flood-opacity="0.302"/><feComposite operator="in" in2="h"/><feComposite in="SourceGraphic"/></filter><filter id="j" x="0" y="0" width="95" height="83.084" filterUnits="userSpaceOnUse"><feOffset dy="6" input="SourceAlpha"/><feGaussianBlur stdDeviation="7.5" result="k"/><feFlood flood-opacity="0.302"/><feComposite operator="in" in2="k"/><feComposite in="SourceGraphic"/></filter></defs><g transform="translate(-413.17 -343.651)"><circle class="a" cx="4.883" cy="4.883" r="4.883" transform="translate(464.987 389.108)"/><path class="a" d="M464.034,399.178v7.506a1.465,1.465,0,0,0,2.274,1.221l3.61-2.393,3.61,2.393a1.467,1.467,0,0,0,2.274-1.221v-7.619A7.8,7.8,0,0,1,464.034,399.178Z"/><g class="d" transform="matrix(1, 0, 0, 1, 413.17, 343.65)"><circle class="a" cx="4.883" cy="4.883" r="4.883" transform="translate(51.82 45.46)"/></g><g class="c" transform="matrix(1, 0, 0, 1, 413.17, 343.65)"><path class="a" d="M464.034,399.178v7.506a1.465,1.465,0,0,0,2.274,1.221l3.61-2.393,3.61,2.393a1.467,1.467,0,0,0,2.274-1.221v-7.619A7.8,7.8,0,0,1,464.034,399.178Z" transform="translate(-413.17 -343.65)"/></g><g class="b" transform="matrix(1, 0, 0, 1, 413.17, 343.65)"><path class="a" d="M484.2,360.151h-47.07a1.465,1.465,0,0,0-1.465,1.465v35.155a1.464,1.464,0,0,0,1.465,1.464h26.181a7.809,7.809,0,1,1,13.107,0H484.2a1.464,1.464,0,0,0,1.465-1.464V361.616A1.465,1.465,0,0,0,484.2,360.151Zm-38.183,5.957H457.74a1.465,1.465,0,0,1,0,2.93H446.022a1.465,1.465,0,0,1,0-2.93Zm11.718,24.465H446.022a1.465,1.465,0,0,1,0-2.93H457.74a1.465,1.465,0,1,1,0,2.93Zm17.579-7.179h-29.3a1.465,1.465,0,1,1,0-2.929h29.3a1.465,1.465,0,0,1,0,2.929Zm0-7.178h-29.3a1.465,1.465,0,1,1,0-2.93h29.3a1.465,1.465,0,0,1,0,2.93Z" transform="translate(-413.17 -343.65)"/></g></g></svg>