<?xml version="1.0" encoding="utf-8"?>
<!-- Generator: Adobe Illustrator 24.0.0, SVG Export Plug-In . SVG Version: 6.00 Build 0)  -->
<svg version="1.1" id="Capa_1" xmlns="http://www.w3.org/2000/svg" xmlns:xlink="http://www.w3.org/1999/xlink" x="0px" y="0px"
	 viewBox="0 0 95 93" style="enable-background:new 0 0 95 93;" xml:space="preserve">
<style type="text/css">
	.st0{fill:url(#SVGID_1_);}
	.st1{fill:url(#SVGID_2_);}
	.st2{fill:url(#SVGID_3_);}
	.st3{fill:url(#SVGID_4_);}
</style>
<g transform="translate(-975.5 -2152.5)">
	<g transform="translate(998 2177.988)">
		<g transform="matrix(1, 0, 0, 1, -22.5, -25.49)">
			
				<linearGradient id="SVGID_1_" gradientUnits="userSpaceOnUse" x1="-2.4859" y1="95.716" x2="-2.4859" y2="94.7161" gradientTransform="matrix(12.1895 0 0 -3.658 52.2406 394.9143)">
				<stop  offset="0" style="stop-color:#FD7322"/>
				<stop  offset="1" style="stop-color:#FEBE2C"/>
			</linearGradient>
			<path class="st0" d="M28,44.8H17.7c-1,0-1.8,0.8-1.8,1.8c0,1,0.8,1.8,1.8,1.8c0,0,0,0,0,0H28c0-0.6-0.1-1.3-0.1-1.9
				C28,45.9,28,45.4,28,44.8z"/>
		</g>
		<g transform="matrix(1, 0, 0, 1, -22.5, -25.49)">
			
				<linearGradient id="SVGID_2_" gradientUnits="userSpaceOnUse" x1="-2.5382" y1="95.716" x2="-2.5382" y2="94.7161" gradientTransform="matrix(10.5145 0 0 -3.658 54.0483 381.5193)">
				<stop  offset="0" style="stop-color:#FD7322"/>
				<stop  offset="1" style="stop-color:#FEBE2C"/>
			</linearGradient>
			<path class="st1" d="M23.9,31.4c-1,0-1.8,0.8-1.8,1.8c0,1,0.8,1.8,1.8,1.8c0,0,0,0,0,0h6.6c0.6-1.3,1.3-2.5,2.1-3.7H23.9z"/>
		</g>
		<g transform="matrix(1, 0, 0, 1, -22.5, -25.49)">
			
				<linearGradient id="SVGID_3_" gradientUnits="userSpaceOnUse" x1="-2.5324" y1="95.716" x2="-2.5324" y2="94.7161" gradientTransform="matrix(10.6774 0 0 -3.658 54.4813 408.3103)">
				<stop  offset="0" style="stop-color:#FD7322"/>
				<stop  offset="1" style="stop-color:#FEBE2C"/>
			</linearGradient>
			<path class="st2" d="M23.9,58.2c-1,0-1.8,0.8-1.8,1.8c0,1,0.8,1.8,1.8,1.8c0,0,0,0,0,0h8.8c-0.8-1.2-1.5-2.4-2.2-3.7H23.9z"/>
		</g>
	</g>
	<g transform="matrix(1, 0, 0, 1, 975.5, 2152.5)">
		
			<linearGradient id="SVGID_4_" gradientUnits="userSpaceOnUse" x1="-2.2405" y1="97.7341" x2="-2.2405" y2="96.7341" gradientTransform="matrix(48.2 0 0 -48.1999 163.0501 4733.1733)">
			<stop  offset="0" style="stop-color:#FD7322"/>
			<stop  offset="1" style="stop-color:#FEBE2C"/>
		</linearGradient>
		<path class="st3" d="M55,22.4c-13.3,0-24.1,10.9-24,24.2c0,13.3,10.9,24.1,24.2,24c13.3,0,24-10.8,24-24.1
			C79.1,33.2,68.3,22.4,55,22.4C55,22.4,55,22.4,55,22.4z M53.1,31c0-1,0.8-1.8,1.8-1.8l0,0h0c1,0,1.8,0.8,1.8,1.8v3.2
			c0,1-0.8,1.8-1.8,1.8h0c-1,0-1.8-0.8-1.8-1.8c0,0,0,0,0,0V31z M42.6,49.2h-3.2c-1,0-1.8-0.8-1.8-1.8c0-1,0.8-1.8,1.8-1.8h3.2
			c1,0,1.8,0.8,1.8,1.8C44.4,48.4,43.6,49.2,42.6,49.2z M56.8,62c0,1-0.8,1.8-1.8,1.8h0c-1,0-1.8-0.8-1.8-1.8c0,0,0,0,0,0v-3.2
			c0-1,0.8-1.8,1.8-1.8l0,0h0c1,0,1.8,0.8,1.8,1.8V62z M61.2,44.1l-5.3,5.3c-0.6,0.6-1.7,0.6-2.3,0l-3.8-3.8c-0.6-0.7-0.6-1.7,0-2.3
			c0.6-0.6,1.7-0.6,2.3,0l2.7,2.6l4.1-4.1c0.7-0.6,1.7-0.6,2.3,0C61.8,42.5,61.8,43.5,61.2,44.1z M70.6,49.2h-3.2
			c-1,0-1.8-0.8-1.8-1.8c0-1,0.8-1.8,1.8-1.8h3.2c1,0,1.8,0.8,1.8,1.8C72.4,48.4,71.6,49.2,70.6,49.2L70.6,49.2z"/>
	</g>
</g>
</svg>
