<svg xmlns="http://www.w3.org/2000/svg" xmlns:xlink="http://www.w3.org/1999/xlink" width="104.993" height="76.03" viewBox="0 0 104.993 76.03"><defs><style>.a{fill:url(#a);}.b{filter:url(#u);}.c{filter:url(#r);}.d{filter:url(#o);}.e{filter:url(#l);}.f{filter:url(#i);}.g{filter:url(#f);}.h{filter:url(#c);}</style><linearGradient id="a" x1="0.5" x2="0.5" y2="1" gradientUnits="objectBoundingBox"><stop offset="0" stop-color="#fd7322"/><stop offset="1" stop-color="#febe2c"/></linearGradient><filter id="c" x="0" y="0" width="51.574" height="76.03" filterUnits="userSpaceOnUse"><feOffset dy="6" input="SourceAlpha"/><feGaussianBlur stdDeviation="7.5" result="d"/><feFlood flood-opacity="0.302"/><feComposite operator="in" in2="d"/><feComposite in="SourceGraphic"/></filter><filter id="f" x="21.295" y="0" width="51.56" height="76.03" filterUnits="userSpaceOnUse"><feOffset dy="6" input="SourceAlpha"/><feGaussianBlur stdDeviation="7.5" result="g"/><feFlood flood-opacity="0.302"/><feComposite operator="in" in2="g"/><feComposite in="SourceGraphic"/></filter><filter id="i" x="31.946" y="9.912" width="51.567" height="66.117" filterUnits="userSpaceOnUse"><feOffset dy="6" input="SourceAlpha"/><feGaussianBlur stdDeviation="7.5" result="j"/><feFlood flood-opacity="0.302"/><feComposite operator="in" in2="j"/><feComposite in="SourceGraphic"/></filter><filter id="l" x="42.782" y="9.905" width="51.567" height="66.124" filterUnits="userSpaceOnUse"><feOffset dy="6" input="SourceAlpha"/><feGaussianBlur stdDeviation="7.5" result="m"/><feFlood flood-opacity="0.302"/><feComposite operator="in" in2="m"/><feComposite in="SourceGraphic"/></filter><filter id="o" x="10.658" y="0.014" width="51.56" height="66.131" filterUnits="userSpaceOnUse"><feOffset dy="6" input="SourceAlpha"/><feGaussianBlur stdDeviation="7.5" result="p"/><feFlood flood-opacity="0.302"/><feComposite operator="in" in2="p"/><feComposite in="SourceGraphic"/></filter><filter id="r" x="42.782" y="0" width="62.211" height="51.191" filterUnits="userSpaceOnUse"><feOffset dy="6" input="SourceAlpha"/><feGaussianBlur stdDeviation="7.5" result="s"/><feFlood flood-opacity="0.302"/><feComposite operator="in" in2="s"/><feComposite in="SourceGraphic"/></filter><filter id="u" x="31.946" y="0.007" width="51.567" height="51.185" filterUnits="userSpaceOnUse"><feOffset dy="6" input="SourceAlpha"/><feGaussianBlur stdDeviation="7.5" result="v"/><feFlood flood-opacity="0.302"/><feComposite operator="in" in2="v"/><feComposite in="SourceGraphic"/></filter></defs><g transform="translate(-1022.5 -1396.488)"><g transform="translate(1045 1412.988)"><path class="a" d="M41.707,54.528q0,7.655-.007,15.3c0,.171.048.2.205.2,2.066-.007,4.125-.007,6.191,0,.144,0,.178-.034.178-.178q-.01-15.34,0-30.674c0-.144-.041-.178-.178-.178-2.066.007-4.125.007-6.191,0-.164,0-.205.041-.205.205Q41.71,46.87,41.707,54.528Zm21.3-.014q0,7.655-.007,15.316c0,.171.048.2.205.2q3.078-.01,6.157,0c.157,0,.2-.041.2-.2q-.01-15.32,0-30.633c0-.164-.048-.2-.2-.2q-3.078.01-6.157,0c-.171,0-.2.048-.2.212Zm10.644,4.939V69.811c0,.219,0,.219.219.219q3.068,0,6.136.007c.164,0,.205-.041.205-.205q-.01-10.353,0-20.7c0-.185-.062-.212-.219-.212q-3.068.01-6.136,0c-.178,0-.212.048-.212.219C73.653,52.565,73.653,56.013,73.653,59.454Zm10.836.007q0,5.192-.007,10.377c0,.157.041.192.2.192,2.059-.007,4.111-.007,6.17,0,.144,0,.192-.021.192-.185q-.01-10.374,0-20.755c0-.157-.048-.185-.192-.185q-3.078.01-6.157,0c-.164,0-.219.027-.219.212Q84.5,54.289,84.489,59.461ZM58.911,49.583V39.192c0-.137-.027-.185-.171-.185-2.066.007-4.125.007-6.191,0-.151,0-.192.034-.192.185q.01,10.384,0,20.768c0,.144.041.178.178.178q3.078-.01,6.157,0c.171,0,.226-.027.226-.219Q58.908,54.758,58.911,49.583Zm34.163-4.392q4.228,0,8.448.007c.144,0,.178-.034.178-.178q-.01-2.914,0-5.828c0-.151-.034-.185-.185-.185q-8.424.01-16.842,0c-.151,0-.185.041-.185.185q.01,2.9,0,5.815c0,.164.048.192.2.192Q88.874,45.187,93.074,45.191Zm-16.158,0h3.126c.13,0,.171-.027.171-.164q-.01-2.914,0-5.828c0-.15-.034-.192-.192-.192-2.066.007-4.139.007-6.2,0-.13,0-.171.027-.171.164.007,1.956.007,3.906,0,5.862,0,.123.027.164.157.157Z" transform="translate(-41.7 -39)"/><g class="h" transform="matrix(1, 0, 0, 1, -22.5, -16.5)"><path class="a" d="M41.707,54.528q0-7.665-.007-15.323c0-.164.041-.205.205-.205,2.066.007,4.125.007,6.191,0,.137,0,.178.034.178.178q-.01,15.34,0,30.674c0,.144-.034.178-.178.178-2.066-.007-4.125-.007-6.191,0-.157,0-.205-.034-.205-.2Q41.71,62.176,41.707,54.528Z" transform="translate(-19.2 -22.5)"/></g><g class="g" transform="matrix(1, 0, 0, 1, -22.5, -16.5)"><path class="a" d="M353.014,54.515q0-7.655-.007-15.3c0-.157.027-.212.2-.212q3.078.01,6.157,0c.151,0,.2.034.2.2q-.01,15.32,0,30.633c0,.157-.041.2-.2.2q-3.078-.01-6.157,0c-.157,0-.205-.034-.205-.2Q353.021,62.176,353.014,54.515Z" transform="translate(-309.2 -22.5)"/></g><g class="f" transform="matrix(1, 0, 0, 1, -22.5, -16.5)"><path class="a" d="M508.707,194.442q0-5.161-.007-10.323c0-.171.034-.219.212-.219q3.068.01,6.136,0c.164,0,.219.027.219.212q-.01,10.353,0,20.7c0,.164-.041.205-.205.205q-3.068-.01-6.136-.007c-.219,0-.219,0-.219-.219Z" transform="translate(-454.25 -157.49)"/></g><g class="e" transform="matrix(1, 0, 0, 1, -22.5, -16.5)"><path class="a" d="M667.107,194.355q0-5.172-.007-10.343c0-.178.048-.212.219-.212q3.078.01,6.157,0c.144,0,.192.027.192.185q-.01,10.374,0,20.755c0,.157-.055.185-.192.185-2.059-.007-4.111-.007-6.17,0-.151,0-.2-.034-.2-.192Z" transform="translate(-601.82 -157.39)"/></g><g class="d" transform="matrix(1, 0, 0, 1, -22.5, -16.5)"><path class="a" d="M204.053,49.769q0,5.172.007,10.343c0,.185-.055.219-.226.219q-3.078-.01-6.157,0c-.137,0-.178-.034-.178-.178q.01-10.384,0-20.768c0-.157.048-.185.192-.185,2.066.007,4.125.007,6.191,0,.15,0,.178.048.171.185Z" transform="translate(-164.34 -22.69)"/></g><g class="c" transform="matrix(1, 0, 0, 1, -22.5, -16.5)"><path class="a" d="M675.692,45.191H667.3c-.15,0-.2-.027-.2-.192q.01-2.9,0-5.815c0-.15.034-.185.185-.185q8.424.01,16.842,0c.151,0,.185.034.185.185q-.01,2.914,0,5.828c0,.144-.034.178-.178.178Z" transform="translate(-601.82 -22.5)"/></g><g class="b" transform="matrix(1, 0, 0, 1, -22.5, -16.5)"><path class="a" d="M511.97,45.284h-3.113c-.13,0-.157-.034-.157-.157.007-1.956.007-3.906,0-5.862,0-.137.041-.164.171-.164,2.066.007,4.139.007,6.2,0,.151,0,.192.048.192.192q-.01,2.914,0,5.828c0,.137-.041.171-.171.164Z" transform="translate(-454.25 -22.59)"/></g></g></g></svg>