<?xml version="1.0" encoding="utf-8"?>
<!-- Generator: Adobe Illustrator 24.0.0, SVG Export Plug-In . SVG Version: 6.00 Build 0)  -->
<svg version="1.1" id="Capa_1" xmlns="http://www.w3.org/2000/svg" xmlns:xlink="http://www.w3.org/1999/xlink" x="0px" y="0px"
	 viewBox="0 0 95 93" style="enable-background:new 0 0 95 93;" xml:space="preserve">
<style type="text/css">
	.st0{fill:url(#SVGID_1_);}
</style>
<g transform="translate(-215.5 -1623.472)">
	<g transform="matrix(1, 0, 0, 1, 215.5, 1623.47)">
		
			<linearGradient id="SVGID_1_" gradientUnits="userSpaceOnUse" x1="-2.077" y1="97.2216" x2="-2.077" y2="96.2216" gradientTransform="matrix(65 0 0 -30.445 182.504 2991.1904)">
			<stop  offset="0" style="stop-color:#FD7322"/>
			<stop  offset="1" style="stop-color:#FEBE2C"/>
		</linearGradient>
		<path class="st0" d="M18,61.7h-3V31.3h26.2c11.5,0,13.3,11.9,13.3,11.9l6.4-11.9h6.8L80,54.4l-3.9,7.4H59.9v-3.7h18.2L64.3,31.3
			c0,0-9.1,18.2-11,21.8s-5.6,8.6-11.9,8.6h-9.7V43.6h3.1V58h7.1c3.1,0,9.9-3.1,9.9-11.8s-7.2-11.4-9.5-11.4H18V61.7L18,61.7z
			 M19,61.7V48.8h11.5v3.6h-8.4v9.4C22.1,61.7,19,61.7,19,61.7z M30.5,47.3v-3.7h-8.4v-3.9h19.4c2.9,0,6,2.7,6,6.7s-3.1,6.7-5.3,6.7
			h-3v-9.5h-3.2v13h6.2c3.9,0,8.5-3.9,8.5-10.1c0-6.1-4.1-10.4-9.1-10.4H19v11.1L30.5,47.3L30.5,47.3z M50.2,61.7l14.1-26.9
			l11.6,21.8h-16v-3.6h10.4l-6-11.2l-9.8,19.8L50.2,61.7L50.2,61.7z"/>
	</g>
</g>
</svg>
