<svg xmlns="http://www.w3.org/2000/svg" xmlns:xlink="http://www.w3.org/1999/xlink" width="108.315" height="93.2" viewBox="0 0 108.315 93.2"><defs><style>.a{fill:url(#a);}.b{filter:url(#k);}.c{filter:url(#h);}.d{filter:url(#e);}.e{filter:url(#b);}</style><linearGradient id="a" x1="0.5" x2="0.5" y2="1" gradientUnits="objectBoundingBox"><stop offset="0" stop-color="#fd7322"/><stop offset="1" stop-color="#febe2c"/></linearGradient><filter id="b" x="0" y="22.385" width="57.193" height="48.657" filterUnits="userSpaceOnUse"><feOffset dy="6" input="SourceAlpha"/><feGaussianBlur stdDeviation="7.5" result="c"/><feFlood flood-opacity="0.302"/><feComposite operator="in" in2="c"/><feComposite in="SourceGraphic"/></filter><filter id="e" x="6.257" y="8.989" width="55.517" height="48.657" filterUnits="userSpaceOnUse"><feOffset dy="6" input="SourceAlpha"/><feGaussianBlur stdDeviation="7.5" result="f"/><feFlood flood-opacity="0.302"/><feComposite operator="in" in2="f"/><feComposite in="SourceGraphic"/></filter><filter id="h" x="6.257" y="35.782" width="55.68" height="48.658" filterUnits="userSpaceOnUse"><feOffset dy="6" input="SourceAlpha"/><feGaussianBlur stdDeviation="7.5" result="i"/><feFlood flood-opacity="0.302"/><feComposite operator="in" in2="i"/><feComposite in="SourceGraphic"/></filter><filter id="k" x="14.938" y="0" width="93.377" height="93.2" filterUnits="userSpaceOnUse"><feOffset dy="6" input="SourceAlpha"/><feGaussianBlur stdDeviation="7.5" result="l"/><feFlood flood-opacity="0.302"/><feComposite operator="in" in2="l"/><feComposite in="SourceGraphic"/></filter></defs><g transform="translate(-975.5 -2152.5)"><g transform="translate(998 2177.988)"><g class="e" transform="matrix(1, 0, 0, 1, -22.5, -25.49)"><path class="a" d="M779.156,378.287H768.818a1.829,1.829,0,1,0,0,3.658h10.356c-.046-.642-.078-1.288-.078-1.943C779.1,379.426,779.121,378.855,779.156,378.287Z" transform="translate(-744.48 -339.4)"/></g><g class="d" transform="matrix(1, 0, 0, 1, -22.5, -25.49)"><path class="a" d="M774.747,365.592a1.829,1.829,0,1,0,0,3.658h6.588a26.787,26.787,0,0,1,2.093-3.658Z" transform="translate(-744.15 -340.1)"/></g><g class="c" transform="matrix(1, 0, 0, 1, -22.5, -25.49)"><path class="a" d="M774.747,390.983a1.829,1.829,0,1,0,0,3.658h8.844a26.852,26.852,0,0,1-2.152-3.658Z" transform="translate(-744.15 -338.7)"/></g></g><g class="b" transform="matrix(1, 0, 0, 1, 975.5, 2152.5)"><path class="a" d="M805.327,357.074a24.1,24.1,0,1,0,24.189,24.1A24.144,24.144,0,0,0,805.327,357.074Zm-1.836,8.578a1.833,1.833,0,0,1,1.833-1.833h.006a1.833,1.833,0,0,1,1.832,1.833v3.193a1.832,1.832,0,0,1-1.832,1.832h-.006a1.832,1.832,0,0,1-1.833-1.832Zm-10.527,18.26h-3.226a1.829,1.829,0,0,1,0-3.658h3.226a1.829,1.829,0,0,1,0,3.658Zm14.2,12.783a1.832,1.832,0,0,1-1.832,1.832h-.006a1.832,1.832,0,0,1-1.833-1.832V393.5a1.833,1.833,0,0,1,1.833-1.833h.006a1.833,1.833,0,0,1,1.832,1.833Zm4.354-17.923-5.309,5.29a1.657,1.657,0,0,1-2.335,0l-3.819-3.806a1.648,1.648,0,0,1,2.335-2.326l2.651,2.642,4.141-4.127a1.649,1.649,0,0,1,2.336,2.327Zm9.4,5.139H817.69a1.829,1.829,0,0,1,0-3.658h3.226a1.829,1.829,0,0,1,0,3.658Z" transform="translate(-743.7 -340.57)"/></g></g></svg>