<svg xmlns="http://www.w3.org/2000/svg" xmlns:xlink="http://www.w3.org/1999/xlink" width="99.771" height="100.18" viewBox="0 0 99.771 100.18"><defs><style>.a{fill:url(#a);}.b{filter:url(#b);}</style><linearGradient id="a" x1="0.5" x2="0.5" y2="1" gradientUnits="objectBoundingBox"><stop offset="0" stop-color="#fd7322"/><stop offset="1" stop-color="#febe2c"/></linearGradient><filter id="b" x="0" y="0" width="99.771" height="100.18" filterUnits="userSpaceOnUse"><feOffset dy="6" input="SourceAlpha"/><feGaussianBlur stdDeviation="7.5" result="c"/><feFlood flood-opacity="0.302"/><feComposite operator="in" in2="c"/><feComposite in="SourceGraphic"/></filter></defs><g transform="translate(-403.516 -123.621)"><g class="b" transform="matrix(1, 0, 0, 1, 403.52, 123.62)"><path class="a" d="M474.787,158.589a6,6,0,0,0-6,6c0,.152.012.3.023.45l-8.052,1.976a11.005,11.005,0,0,0-7.593-5.852v-9.477a6,6,0,1,0-3,.381v8.906a10.969,10.969,0,0,0-7.573,3.8l-7.732-4.464a4.519,4.519,0,1,0-1.681,2.493l7.787,4.5a10.917,10.917,0,0,0,.628,10.435l-4.675,5.039a6.9,6.9,0,1,0,2.017,2.237l4.594-4.952a10.941,10.941,0,0,0,13.213,1.205l2.648,4.567A4.525,4.525,0,1,0,462,184.34l-2.919-5.033a10.911,10.911,0,0,0,2.652-9.441l8.05-1.976a6,6,0,1,0,5.008-9.3Z" transform="translate(-403.52 -123.62)"/></g></g></svg>