<svg xmlns="http://www.w3.org/2000/svg" xmlns:xlink="http://www.w3.org/1999/xlink" width="103.387" height="102.55" viewBox="0 0 103.387 102.55"><defs><style>.a{fill:url(#a);}.b{filter:url(#h);}.c{filter:url(#e);}.d{filter:url(#b);}</style><linearGradient id="a" x1="0.5" x2="0.5" y2="1" gradientUnits="objectBoundingBox"><stop offset="0" stop-color="#fd7322"/><stop offset="1" stop-color="#febe2c"/></linearGradient><filter id="b" x="0" y="0" width="103.387" height="63.247" filterUnits="userSpaceOnUse"><feOffset dy="6" input="SourceAlpha"/><feGaussianBlur stdDeviation="7.5" result="c"/><feFlood flood-opacity="0.302"/><feComposite operator="in" in2="c"/><feComposite in="SourceGraphic"/></filter><filter id="e" x="20.18" y="51.946" width="63.024" height="50.604" filterUnits="userSpaceOnUse"><feOffset dy="6" input="SourceAlpha"/><feGaussianBlur stdDeviation="7.5" result="f"/><feFlood flood-opacity="0.302"/><feComposite operator="in" in2="f"/><feComposite in="SourceGraphic"/></filter><filter id="h" x="5.031" y="18.205" width="93.242" height="76.89" filterUnits="userSpaceOnUse"><feOffset dy="6" input="SourceAlpha"/><feGaussianBlur stdDeviation="7.5" result="i"/><feFlood flood-opacity="0.302"/><feComposite operator="in" in2="i"/><feComposite in="SourceGraphic"/></filter></defs><g transform="translate(-1224.266 -51.476)"><g class="d" transform="matrix(1, 0, 0, 1, 1224.27, 51.48)"><path class="a" d="M1276.13,67.989c1.256-.039,2.684.013,4.11.083,2.264.11,4.522.3,6.771.588a55.8,55.8,0,0,1,9.962,2.113,22.262,22.262,0,0,1,5.345,2.4,8.147,8.147,0,0,1,2.042,1.808,3.238,3.238,0,0,1-.094,4.345,10.671,10.671,0,0,1-3.6,2.615,34.79,34.79,0,0,1-7.965,2.614,65.545,65.545,0,0,1-6.986,1.125q-2.921.319-5.858.439c-1.683.069-3.366.121-5.049.091-2.364-.043-4.727-.143-7.081-.366a65.742,65.742,0,0,1-10.306-1.717,28.928,28.928,0,0,1-7.121-2.689,9.263,9.263,0,0,1-2.647-2.114,3.288,3.288,0,0,1,.1-4.589,11.634,11.634,0,0,1,3.989-2.728,41.09,41.09,0,0,1,9.917-2.859c2.126-.381,4.268-.645,6.418-.839,1.091-.1,2.187-.165,3.283-.217C1272.888,68.023,1274.421,67.975,1276.13,67.989Z" transform="translate(-1224.27 -51.48)"/></g><g class="c" transform="matrix(1, 0, 0, 1, 1224.27, 51.48)"><path class="a" d="M1413.211,492.885a21.378,21.378,0,0,1-6.7-.935,4.8,4.8,0,0,1-1.855-1,1.086,1.086,0,0,1,.085-1.828,6.61,6.61,0,0,1,2.465-1.127,22.227,22.227,0,0,1,5.138-.7,24.934,24.934,0,0,1,6.119.512,8.923,8.923,0,0,1,2.741.986,2,2,0,0,1,.962,1,1.014,1.014,0,0,1-.332,1.094,4.384,4.384,0,0,1-1.684.979,16.12,16.12,0,0,1-3.721.831A24.773,24.773,0,0,1,1413.211,492.885Z" transform="translate(-1361.52 -418.84)"/></g><g class="b" transform="matrix(1, 0, 0, 1, 1224.27, 51.48)"><path class="a" d="M1334.218,214.987c-.072-.067-.16.016-.234.044a47.452,47.452,0,0,1-7.7,2.1,77.056,77.056,0,0,1-7.769,1.069q-2.976.265-5.962.336c-1.854.042-3.71.04-5.565-.026-1.395-.05-2.789-.113-4.179-.222-1.962-.154-3.918-.367-5.865-.662a62.756,62.756,0,0,1-6.742-1.375,40.3,40.3,0,0,1-4.184-1.347.951.951,0,0,0,.04.112q3.086,5.128,6.178,10.253a9,9,0,0,0,1.3,1.933,20.45,20.45,0,0,1,1.669,1.871,27.25,27.25,0,0,1,4.868,9.318,30.634,30.634,0,0,1,1.221,6.514c.049.644.094,1.288.137,1.881a27.641,27.641,0,0,1,17.5.007.536.536,0,0,0,.01-.093,27.889,27.889,0,0,1,.274-3.415,30.208,30.208,0,0,1,2.2-8.03,26.116,26.116,0,0,1,4.475-7.058,12.621,12.621,0,0,0,2.1-2.7c.2-.4.454-.769.684-1.152q2.742-4.553,5.483-9.108C1334.2,215.16,1334.312,215.075,1334.218,214.987Zm-34.54,11.361a2.265,2.265,0,1,1,0-4.526,2.264,2.264,0,1,1,0,4.526Zm9.168,1.415a2.361,2.361,0,0,1,2.37-2.281,2.333,2.333,0,0,1,2.346,2.266,2.278,2.278,0,0,1-2.362,2.259A2.31,2.31,0,0,1,1308.845,227.764Zm3.142,12.064a2.266,2.266,0,1,1-.027-4.528,2.27,2.27,0,0,1,2.335,2.246A2.3,2.3,0,0,1,1311.987,239.828Zm9.7-15.651a2.345,2.345,0,0,1-2.345-2.3,2.309,2.309,0,0,1,2.359-2.235,2.253,2.253,0,0,1,2.323,2.28A2.3,2.3,0,0,1,1321.688,224.177Z" transform="translate(-1258.48 -180.2)"/></g></g></svg>