<?xml version="1.0" encoding="utf-8"?>
<!-- Generator: Adobe Illustrator 24.0.0, SVG Export Plug-In . SVG Version: 6.00 Build 0)  -->
<svg version="1.1" id="Capa_1" xmlns="http://www.w3.org/2000/svg" xmlns:xlink="http://www.w3.org/1999/xlink" x="0px" y="0px"
	 viewBox="0 0 95 93" style="enable-background:new 0 0 95 93;" xml:space="preserve">
<style type="text/css">
	.st0{fill:url(#SVGID_1_);}
</style>
<g transform="translate(-403.516 -123.621)">
	<g transform="matrix(1, 0, 0, 1, 403.52, 123.62)">
		
			<linearGradient id="SVGID_1_" gradientUnits="userSpaceOnUse" x1="-1.8891" y1="96.3023" x2="-1.8891" y2="95.3023" gradientTransform="matrix(54.8286 0 0 -55.1894 151.0735 5333.7676)">
			<stop  offset="0" style="stop-color:#FD7322"/>
			<stop  offset="1" style="stop-color:#FEBE2C"/>
		</linearGradient>
		<path class="st0" d="M68.9,37.4c-3.3,0-6,2.7-6,6c0,0.2,0,0.3,0,0.4l-8.1,2c-1.5-3-4.3-5.2-7.6-5.9v-9.5c3.1-1.2,4.6-4.7,3.3-7.8
			c-1.2-3.1-4.7-4.6-7.8-3.3s-4.6,4.7-3.3,7.8c0.8,2,2.6,3.4,4.8,3.7v8.9c-2.9,0.2-5.7,1.6-7.6,3.8L29,39.1c0.6-2.4-0.8-4.9-3.2-5.5
			s-4.9,0.8-5.5,3.2c-0.6,2.4,0.8,4.9,3.2,5.5c1.3,0.3,2.7,0.1,3.8-0.7l7.8,4.5c-1.6,3.4-1.3,7.3,0.6,10.4l-4.7,5
			c-3.1-2.2-7.4-1.5-9.6,1.6c-2.2,3.1-1.5,7.4,1.6,9.6s7.4,1.5,9.6-1.6c1.5-2.2,1.7-5.1,0.4-7.4l4.6-5c3.6,3.3,9,3.8,13.2,1.2
			l2.6,4.6c-1.6,1.9-1.4,4.7,0.5,6.4s4.7,1.4,6.4-0.5s1.4-4.7-0.5-6.4c-1-0.9-2.4-1.3-3.8-1l-2.9-5c2.3-2.6,3.3-6.1,2.7-9.4l8-2
			c1.8,2.8,5.5,3.5,8.3,1.7c2.8-1.8,3.5-5.5,1.7-8.3C72.8,38.4,70.9,37.4,68.9,37.4L68.9,37.4z"/>
	</g>
</g>
</svg>
