<svg xmlns="http://www.w3.org/2000/svg" width="40" height="40" viewBox="0 0 40 40"><defs><style>.a{opacity:0.8;}.b{fill:#fff;}.c{fill:#3a3a3a;}</style></defs><g class="a"><circle class="b" cx="20" cy="20" r="20" transform="translate(0 0)"/><g transform="translate(8.984 10.157)"><path class="c" d="M48.48,36.31a8.954,8.954,0,0,1-2.745.749,4.82,4.82,0,0,0,2.1-2.638,10.109,10.109,0,0,1-3.03,1.176,4.729,4.729,0,0,0-3.494-1.5,4.777,4.777,0,0,0-4.777,4.777,5.535,5.535,0,0,0,.107,1.105,13.626,13.626,0,0,1-9.84-4.991,4.614,4.614,0,0,0-.642,2.389A4.787,4.787,0,0,0,28.3,41.373a4.954,4.954,0,0,1-2.175-.606v.071a4.745,4.745,0,0,0,3.85,4.67,4.794,4.794,0,0,1-1.248.178,6.946,6.946,0,0,1-.891-.071,4.8,4.8,0,0,0,4.456,3.316,9.615,9.615,0,0,1-5.954,2.032c-.392,0-.749-.036-1.141-.071A13.632,13.632,0,0,0,46.163,39.412v-.606a11.083,11.083,0,0,0,2.317-2.5Z" transform="translate(-25.2 -34.1)"/></g></g></svg>