<svg xmlns="http://www.w3.org/2000/svg" xmlns:xlink="http://www.w3.org/1999/xlink" width="145" height="145" viewBox="0 0 145 145"><defs><style>.a{fill:url(#a);}.b{fill:#fff;}.c{filter:url(#b);}</style><linearGradient id="a" x1="0.5" x2="0.5" y2="1" gradientUnits="objectBoundingBox"><stop offset="0" stop-color="#fd7322"/><stop offset="1" stop-color="#febe2c"/></linearGradient><filter id="b" x="0" y="0" width="145" height="145" filterUnits="userSpaceOnUse"><feOffset dy="6" input="SourceAlpha"/><feGaussianBlur stdDeviation="7.5" result="c"/><feFlood flood-opacity="0.161"/><feComposite operator="in" in2="c"/><feComposite in="SourceGraphic"/></filter></defs><g transform="translate(-271.5 -2628.5)"><g transform="translate(73 556)"><g class="c" transform="matrix(1, 0, 0, 1, 198.5, 2072.5)"><circle class="a" cx="50" cy="50" r="50" transform="translate(22.5 16.5)"/></g><g transform="translate(240.13 2117.57)"><rect class="b" width="9.75" height="3" rx="1.5" transform="translate(51.945 11.675) rotate(21.14)"/><rect class="b" width="9.75" height="3" rx="1.5" transform="matrix(0.915, -0.405, 0.405, 0.915, 52.836, 7.687)"/><rect class="b" width="9.75" height="3" rx="1.5" transform="matrix(0.405, 0.915, -0.915, 0.405, 51.573, 16.793)"/><path class="b" d="M11.87,1.43c-5.51,0-10,4.11-10,9.17V17a8.924,8.924,0,0,0,8,8.56,1.76,1.76,0,0,1,1.64,2.24L7.35,39.62C6.16,43,8.88,46.43,12.73,46.43h7.6l5-13.85h7.26l2.51-6.92h7.95l8.8-24.23ZM26.62,18h-12a1.5,1.5,0,0,1,0-3h12a1.5,1.5,0,1,1,0,3Zm8.47-6.08H14.57a1.5,1.5,0,0,1,0-3H35.09a1.5,1.5,0,0,1,0,3Z"/></g></g></g></svg>