<svg xmlns="http://www.w3.org/2000/svg" xmlns:xlink="http://www.w3.org/1999/xlink" width="145" height="145" viewBox="0 0 145 145"><defs><style>.a{fill:url(#a);}.b{fill:#fff;}.c{filter:url(#b);}</style><linearGradient id="a" x1="0.5" x2="0.5" y2="1" gradientUnits="objectBoundingBox"><stop offset="0" stop-color="#fd7322"/><stop offset="1" stop-color="#febe2c"/></linearGradient><filter id="b" x="0" y="0" width="145" height="145" filterUnits="userSpaceOnUse"><feOffset dy="6" input="SourceAlpha"/><feGaussianBlur stdDeviation="7.5" result="c"/><feFlood flood-opacity="0.161"/><feComposite operator="in" in2="c"/><feComposite in="SourceGraphic"/></filter></defs><g transform="translate(-957.5 -2628.5)"><g class="c" transform="matrix(1, 0, 0, 1, 957.5, 2628.5)"><path class="a" d="M50,0A50,50,0,1,1,0,50,50,50,0,0,1,50,0Z" transform="translate(22.5 16.5)"/></g><g transform="translate(450.212 2316.926)"><path class="b" d="M585.783,357.074V370.96a1.467,1.467,0,0,1-2.274,1.221l-3.61-2.393-3.61,2.393a1.465,1.465,0,0,1-2.274-1.221V357.074H559.788a2,2,0,0,0-2,2v37.161a2,2,0,0,0,2,2H600.01a2,2,0,0,0,2-2V359.074a2,2,0,0,0-2-2Zm-11.911,24.712h12.054a1.5,1.5,0,0,1,0,3H573.872a1.5,1.5,0,0,1,0-3Zm16.287,9.082h-20.52a1.5,1.5,0,0,1,0-3h20.52a1.5,1.5,0,0,1,0,3Z"/></g></g></svg>