<svg xmlns="http://www.w3.org/2000/svg" xmlns:xlink="http://www.w3.org/1999/xlink" width="100" height="100" viewBox="0 0 100 100"><defs><style>.a{fill:url(#a);}.b{fill:#fff;}</style><linearGradient id="a" x1="0.5" x2="0.5" y2="1" gradientUnits="objectBoundingBox"><stop offset="0" stop-color="#fd7322"/><stop offset="1" stop-color="#febe2c"/></linearGradient></defs><g transform="translate(-221 -2089)"><circle class="a" cx="50" cy="50" r="50" transform="translate(221 2089)"/><g transform="translate(-103.652 1751.927)"><path class="b" d="M359.647,368.073c-5.511,0-9.995,4.116-9.995,9.175v6.4c0,4.341,3.486,7.938,8.028,8.559a1.764,1.764,0,0,1,1.647,2.242l-4.2,11.819c-1.193,3.36,1.528,6.8,5.377,6.8h7.6l5.027-13.846h7.259L382.9,392.3h7.949l8.8-24.231Z"/><rect class="b" width="9.75" height="3" rx="1.5" transform="translate(399.727 378.316) rotate(21.137)"/><rect class="b" width="9.75" height="3" rx="1.5" transform="matrix(0.915, -0.405, 0.405, 0.915, 400.605, 374.323)"/><rect class="b" width="9.75" height="3" rx="1.5" transform="matrix(0.405, 0.915, -0.915, 0.405, 399.352, 383.446)"/></g></g></svg>